<svg width="32" height="36" viewBox="0 0 32 36" fill="none" xmlns="http://www.w3.org/2000/svg">
<path d="M31.356 15.3561C31.356 29.779 15.9999 36 15.9999 36C15.9999 36 0.643799 29.3778 0.643799 15.3561C0.643799 6.87516 7.51896 0 15.9999 0C24.4809 0 31.356 6.87516 31.356 15.3561Z" fill="#F3F0F3"/>
<path d="M16.0001 0C15.6348 0 15.2726 0.0136406 14.9136 0.0387422C22.8874 0.59625 29.1832 7.24057 29.1832 15.3561C29.1832 27.4033 18.4694 33.7279 14.9399 35.4847C15.604 35.8291 16.0001 36 16.0001 36C16.0001 36 31.3562 29.779 31.3562 15.3561C31.3562 6.87516 24.4811 0 16.0001 0V0Z" fill="#E2DEE2"/>
<path d="M29.1831 15.3564C29.1831 17.2651 28.7775 19.0789 28.0473 20.7166C27.7431 21.4018 27.3809 22.0552 26.9687 22.6723C24.6045 26.21 20.5742 28.5395 16 28.5395C11.4257 28.5395 7.3955 26.21 5.03125 22.6723C4.61907 22.0552 4.25689 21.4018 3.95265 20.7166C3.22253 19.0789 2.81689 17.2651 2.81689 15.3564C2.81689 14.0476 3.00737 12.7836 3.36308 11.5899C3.56375 10.9133 3.818 10.26 4.12 9.63413C6.25032 5.21928 10.7695 2.17334 16 2.17334C21.2305 2.17334 25.7497 5.21921 27.88 9.63413C28.1821 10.26 28.4363 10.9133 28.6369 11.5899C28.9926 12.7836 29.1831 14.0476 29.1831 15.3564Z" fill="#554E56"/>
<path d="M26.9688 22.6724C24.6045 26.2101 20.5743 28.5396 16 28.5396C11.4257 28.5396 7.39551 26.2101 5.03125 22.6724H26.9688Z" fill="#09A76D"/>
<path d="M29.1831 15.3561C29.1831 17.2647 28.7775 19.0785 28.0473 20.7162C27.7431 21.4014 27.3809 22.0548 26.9687 22.672H5.03125C4.61907 22.0548 4.25689 21.4015 3.95265 20.7162C3.22253 19.0785 2.81689 17.2647 2.81689 15.3561C2.81689 14.0472 3.00737 12.7832 3.36308 11.5895C3.56375 10.913 3.818 10.2596 4.12 9.63379H27.88C28.1821 10.2596 28.4363 10.913 28.6369 11.5895C28.9926 12.7832 29.1831 14.0472 29.1831 15.3561Z" fill="#F3F0F3"/>
<path d="M29.1831 15.3559C29.1831 17.2646 28.7775 19.0784 28.0473 20.7161H3.95265C3.22253 19.0784 2.81689 17.2646 2.81689 15.3559C2.81689 14.0471 3.00737 12.7831 3.36308 11.5894H28.637C28.9926 12.7831 29.1831 14.0471 29.1831 15.3559Z" fill="#E94444"/>
<path d="M22.07 24.5584L12.5374 7.44562C12.3956 7.19116 12.0744 7.09982 11.8201 7.24157C11.5657 7.38332 11.4743 7.70444 11.6161 7.9589L21.1487 25.0717C21.2452 25.2449 21.4248 25.3425 21.6099 25.3425C21.6967 25.3425 21.7848 25.321 21.8661 25.2758C22.1204 25.134 22.2118 24.8129 22.07 24.5584Z" fill="#E2DEE2"/>
<path d="M20.1797 7.24101C19.9254 7.0994 19.6042 7.19066 19.4624 7.44505L9.92981 24.5579C9.78806 24.8123 9.87939 25.1334 10.1339 25.2752C10.2151 25.3205 10.3031 25.3419 10.39 25.3419C10.5751 25.3419 10.7547 25.2442 10.8512 25.0711L20.3838 7.95827C20.5255 7.70388 20.4341 7.38276 20.1797 7.24101Z" fill="#E2DEE2"/>
<path d="M20.6359 16.1527C20.6359 21.2617 17.1369 25.5303 16.2186 26.5626C16.1021 26.6936 15.8981 26.6936 15.7816 26.5626C14.8633 25.5303 11.3643 21.2617 11.3643 16.1527C11.3643 11.0436 14.8633 6.7751 15.7816 5.74278C15.8981 5.61178 16.1021 5.61178 16.2186 5.74278C17.1369 6.7751 20.6359 11.0437 20.6359 16.1527Z" fill="#E94444"/>
<path d="M16.2185 5.74326C16.102 5.61227 15.898 5.61227 15.7815 5.74326C15.5935 5.95455 15.2974 6.30162 14.9453 6.7635C16.3133 8.5583 18.5265 12.0899 18.5265 16.1532C18.5265 20.2165 16.3133 23.748 14.9453 25.5428C15.2974 26.0047 15.5935 26.3517 15.7815 26.563C15.898 26.694 16.102 26.694 16.2185 26.563C17.1368 25.5308 20.6358 21.2621 20.6358 16.1531C20.6358 11.0441 17.1368 6.77552 16.2185 5.74326Z" fill="#D83131"/>
<path d="M20.6358 16.1533C20.6358 17.8439 20.2526 19.4425 19.7065 20.8623C18.9358 19.4556 18.5005 17.8533 18.5005 16.1533C18.5005 14.4533 18.9358 12.851 19.7065 11.4443C20.2526 12.8641 20.6358 14.4627 20.6358 16.1533Z" fill="#433F43"/>
<path d="M13.4996 16.1533C13.4996 17.8533 13.0643 19.4556 12.2936 20.8623C11.7474 19.4425 11.3643 17.8439 11.3643 16.1533C11.3643 14.4627 11.7475 12.864 12.2936 11.4443C13.0643 12.851 13.4996 14.4533 13.4996 16.1533Z" fill="#554E56"/>
<path d="M16 17.4567C16.52 17.4567 16.9416 16.873 16.9416 16.1529C16.9416 15.4329 16.52 14.8491 16 14.8491C15.4799 14.8491 15.0583 15.4329 15.0583 16.1529C15.0583 16.873 15.4799 17.4567 16 17.4567Z" fill="#F3F0F3"/>
<path d="M15.1309 9.00488C14.8396 9.00488 14.6035 9.24099 14.6035 9.53223V13.154C14.6035 13.4452 14.8396 13.6813 15.1309 13.6813C15.4222 13.6813 15.6582 13.4452 15.6582 13.154V9.53223C15.6582 9.24099 15.4221 9.00488 15.1309 9.00488Z" fill="#F3F0F3"/>
<path d="M16.8691 9.00488C16.5778 9.00488 16.3418 9.24099 16.3418 9.53223V13.154C16.3418 13.4452 16.5778 13.6813 16.8691 13.6813C17.1604 13.6813 17.3965 13.4452 17.3965 13.154V9.53223C17.3965 9.24099 17.1604 9.00488 16.8691 9.00488Z" fill="#F3F0F3"/>
<path d="M15.1309 18.6253C14.8396 18.6253 14.6035 18.8614 14.6035 19.1526V22.7743C14.6035 23.0656 14.8396 23.3017 15.1309 23.3017C15.4222 23.3017 15.6582 23.0656 15.6582 22.7743V19.1526C15.6582 18.8614 15.4221 18.6253 15.1309 18.6253Z" fill="#F3F0F3"/>
<path d="M16.8691 18.6253C16.5778 18.6253 16.3418 18.8614 16.3418 19.1526V22.7743C16.3418 23.0656 16.5778 23.3017 16.8691 23.3017C17.1604 23.3017 17.3965 23.0656 17.3965 22.7743V19.1526C17.3965 18.8614 17.1604 18.6253 16.8691 18.6253Z" fill="#F3F0F3"/>
<path d="M16 1.646C8.44 1.646 2.28955 7.79651 2.28955 15.3564C2.28955 22.9164 8.44 29.0669 16 29.0669C23.56 29.0669 29.7104 22.9164 29.7104 15.3564C29.7104 7.79644 23.56 1.646 16 1.646ZM16 28.0122C9.02155 28.0122 3.34424 22.3348 3.34424 15.3564C3.34424 8.378 9.02155 2.70068 16 2.70068C22.9784 2.70068 28.6558 8.37807 28.6558 15.3564C28.6558 22.3348 22.9784 28.0122 16 28.0122Z" fill="#554E56"/>
</svg>
