<svg width="403" height="475" viewBox="0 0 403 475" fill="none" xmlns="http://www.w3.org/2000/svg">
<path d="M192.019 4.29768C184.92 79.0037 144.781 104.415 15.2906 104.322C4.77238 104.315 -4.17457 112.304 -5.01173 122.789C-13.2193 225.583 -13.0134 293.063 -4.24856 409.872C-3.76577 416.306 -0.184636 422.142 5.35711 425.446C41.635 447.078 63.7092 457.844 98.5343 467.144C146.844 475.925 175.925 475.748 231.034 467.144C279.191 453.302 303.538 437.051 343.186 399.91C344.075 399.077 345.073 398.3 346.094 397.633C406.87 357.917 413.397 318.169 386.534 224.144C368.9 177.335 362.157 152.723 371.034 119.644C386.885 80.8452 391.984 59.1993 394.034 21.1444C394.041 7.23657 392.482 -0.448223 383.753 -8.66032C381.409 -10.8657 378.365 -12.1816 375.202 -12.7734C310.558 -24.8646 270.881 -24.6552 209.007 -14.5808C199.692 -13.0642 192.912 -5.09744 192.019 4.29768Z" fill="#F8F2ED" fill-opacity="0.98" stroke="#F8F2ED"/>
<circle cx="230" cy="398" r="7" fill="#76BF76" stroke="white" stroke-width="4"/>
<circle cx="368" cy="117" r="7" fill="#FFB414" stroke="white" stroke-width="4"/>
<circle cx="47" cy="309" r="7" fill="#F4BD0E" stroke="white" stroke-width="4"/>
<g clip-path="url(#clip0)">
<path d="M235.973 347H62V146.239L235.973 200.147V347Z" fill="#F2F2F2"/>
<path d="M214.888 276.052H78.1948V339.564H214.888V276.052Z" fill="#3F3D56"/>
<path d="M185.284 264.17C195.782 264.17 204.293 255.683 204.293 245.214C204.293 234.745 195.782 226.258 185.284 226.258C174.786 226.258 166.276 234.745 166.276 245.214C166.276 255.683 174.786 264.17 185.284 264.17Z" fill="#76BF76"/>
<path d="M185.112 279.495L185.268 245.11" stroke="#3F3D56" stroke-width="2" stroke-miterlimit="10"/>
<path d="M185.268 249.972C187.961 249.972 190.144 247.795 190.144 245.11C190.144 242.424 187.961 240.247 185.268 240.247C182.575 240.247 180.392 242.424 180.392 245.11C180.392 247.795 182.575 249.972 185.268 249.972Z" fill="#3F3D56"/>
<path d="M185.172 266.302C185.172 266.302 184.543 251.358 170.256 253.031L185.172 266.302Z" fill="#3F3D56"/>
<path d="M105.656 226.112C116.154 226.112 124.664 217.625 124.664 207.155C124.664 196.686 116.154 188.199 105.656 188.199C95.1579 188.199 86.6476 196.686 86.6476 207.155C86.6476 217.625 95.1579 226.112 105.656 226.112Z" fill="#76BF76"/>
<path d="M104.58 277.137L105.674 207.134" stroke="#3F3D56" stroke-width="2" stroke-miterlimit="10"/>
<path d="M105.674 211.997C108.367 211.997 110.55 209.82 110.55 207.134C110.55 204.449 108.367 202.272 105.674 202.272C102.981 202.272 100.798 204.449 100.798 207.134C100.798 209.82 102.981 211.997 105.674 211.997Z" fill="#3F3D56"/>
<path d="M105.364 226.936C105.364 226.936 104.901 211.986 90.5959 213.5L105.364 226.936Z" fill="#3F3D56"/>
<path d="M104.6 275.801C104.6 275.801 108.184 247.122 90.0966 245.451" stroke="#3F3D56" stroke-width="2" stroke-miterlimit="10"/>
<path d="M90.0966 250.314C92.7895 250.314 94.9726 248.137 94.9726 245.451C94.9726 242.766 92.7895 240.588 90.0966 240.588C87.4036 240.588 85.2206 242.766 85.2206 245.451C85.2206 248.137 87.4036 250.314 90.0966 250.314Z" fill="#3F3D56"/>
<path d="M146.533 184.028C157.031 184.028 165.542 175.541 165.542 165.072C165.542 154.602 157.031 146.115 146.533 146.115C136.035 146.115 127.525 154.602 127.525 165.072C127.525 175.541 136.035 184.028 146.533 184.028Z" fill="#76BF76"/>
<path d="M146.545 279.837V165.141" stroke="#3F3D56" stroke-width="2" stroke-miterlimit="10"/>
<path d="M146.545 169.949C149.238 169.949 151.421 167.772 151.421 165.087C151.421 162.401 149.238 160.224 146.545 160.224C143.852 160.224 141.669 162.401 141.669 165.087C141.669 167.772 143.852 169.949 146.545 169.949Z" fill="#3F3D56"/>
<path d="M131.569 252.932C134.262 252.932 136.445 250.755 136.445 248.07C136.445 245.384 134.262 243.207 131.569 243.207C128.876 243.207 126.693 245.384 126.693 248.07C126.693 250.755 128.876 252.932 131.569 252.932Z" fill="#3F3D56"/>
<path d="M146.545 189.926C146.545 189.926 145.849 174.985 131.569 176.721L146.545 189.926Z" fill="#3F3D56"/>
<path d="M146.545 232.281C146.545 232.281 145.849 217.34 131.569 219.077L146.545 232.281Z" fill="#3F3D56"/>
<path d="M146.545 278.5C146.545 278.5 149.68 249.459 131.569 248.07" stroke="#3F3D56" stroke-width="2" stroke-miterlimit="10"/>
<path d="M161.821 207.319C164.514 207.319 166.697 205.142 166.697 202.456C166.697 199.77 164.514 197.593 161.821 197.593C159.128 197.593 156.945 199.77 156.945 202.456C156.945 205.142 159.128 207.319 161.821 207.319Z" fill="#3F3D56"/>
<path d="M146.844 231.337C146.844 231.337 143.71 203.845 161.821 202.456" stroke="#3F3D56" stroke-width="2" stroke-miterlimit="10"/>
<path d="M187.199 191.472C185.847 191.472 184.525 191.073 183.401 190.324C182.277 189.575 181.401 188.51 180.884 187.265C180.367 186.019 180.232 184.649 180.495 183.327C180.759 182.005 181.41 180.79 182.366 179.837C183.322 178.884 184.539 178.234 185.865 177.971C187.191 177.708 188.565 177.843 189.814 178.359C191.063 178.875 192.13 179.749 192.881 180.87C193.632 181.991 194.033 183.308 194.033 184.656C194.031 186.464 193.31 188.196 192.029 189.474C190.748 190.752 189.011 191.47 187.199 191.472ZM187.199 178.46C185.97 178.46 184.768 178.824 183.747 179.504C182.725 180.185 181.928 181.153 181.458 182.285C180.988 183.417 180.865 184.663 181.105 185.865C181.344 187.067 181.936 188.171 182.805 189.038C183.674 189.904 184.781 190.495 185.986 190.734C187.192 190.973 188.441 190.85 189.576 190.381C190.712 189.912 191.682 189.118 192.365 188.099C193.047 187.08 193.412 185.882 193.412 184.656C193.41 183.014 192.755 181.439 191.59 180.277C190.425 179.115 188.846 178.462 187.199 178.46Z" fill="#3F3D56"/>
<path d="M79.708 158.632C78.3562 158.632 77.0348 158.232 75.9108 157.483C74.7869 156.734 73.9108 155.67 73.3936 154.424C72.8763 153.179 72.7409 151.808 73.0046 150.486C73.2683 149.164 73.9193 147.95 74.8751 146.996C75.831 146.043 77.0488 145.394 78.3746 145.131C79.7004 144.868 81.0746 145.003 82.3235 145.519C83.5723 146.035 84.6398 146.908 85.3908 148.029C86.1418 149.15 86.5426 150.468 86.5426 151.816C86.5406 153.623 85.8198 155.356 84.5385 156.633C83.2572 157.911 81.52 158.63 79.708 158.632ZM79.708 145.62C78.4791 145.62 77.2778 145.983 76.256 146.664C75.2342 147.345 74.4379 148.312 73.9676 149.445C73.4973 150.577 73.3743 151.823 73.614 153.025C73.8538 154.227 74.4455 155.331 75.3145 156.197C76.1834 157.064 77.2905 157.654 78.4958 157.893C79.7011 158.132 80.9504 158.01 82.0857 157.541C83.221 157.072 84.1914 156.277 84.8741 155.258C85.5569 154.239 85.9213 153.041 85.9213 151.816C85.9194 150.173 85.2642 148.598 84.0994 147.437C82.9345 146.275 81.3553 145.622 79.708 145.62Z" fill="#3F3D56"/>
<path d="M235.973 259.632C234.621 259.632 233.3 259.232 232.176 258.483C231.052 257.734 230.176 256.67 229.659 255.424C229.141 254.179 229.006 252.808 229.27 251.486C229.533 250.164 230.184 248.95 231.14 247.996C232.096 247.043 233.314 246.394 234.64 246.131C235.966 245.868 237.34 246.003 238.589 246.519C239.837 247.035 240.905 247.908 241.656 249.029C242.407 250.15 242.808 251.468 242.808 252.816C242.806 254.623 242.085 256.356 240.804 257.633C239.522 258.911 237.785 259.63 235.973 259.632ZM235.973 246.62C234.744 246.62 233.543 246.983 232.521 247.664C231.499 248.345 230.703 249.312 230.233 250.445C229.762 251.577 229.639 252.823 229.879 254.025C230.119 255.227 230.711 256.331 231.58 257.197C232.449 258.064 233.556 258.654 234.761 258.893C235.966 259.132 237.215 259.01 238.351 258.541C239.486 258.072 240.457 257.277 241.139 256.258C241.822 255.239 242.186 254.041 242.186 252.816C242.185 251.173 241.529 249.598 240.364 248.437C239.2 247.275 237.62 246.622 235.973 246.62Z" fill="#3F3D56"/>
<path d="M207.081 206.344C209.312 206.344 211.12 204.54 211.12 202.316C211.12 200.092 209.312 198.288 207.081 198.288C204.851 198.288 203.042 200.092 203.042 202.316C203.042 204.54 204.851 206.344 207.081 206.344Z" fill="#3F3D56"/>
<path d="M238.769 279.77C241 279.77 242.808 277.967 242.808 275.742C242.808 273.518 241 271.715 238.769 271.715C236.539 271.715 234.73 273.518 234.73 275.742C234.73 277.967 236.539 279.77 238.769 279.77Z" fill="#3F3D56"/>
<path d="M235.973 347V276.052H207.081C207.081 309.247 180.098 336.156 146.812 336.156C113.526 336.156 86.5426 309.247 86.5426 276.052H62V347H235.973Z" fill="#3F3D56"/>
<path d="M146.812 336.156C180.098 336.156 207.081 309.247 207.081 276.052H86.5426C86.5426 309.247 113.526 336.156 146.812 336.156Z" fill="#76BF76"/>
<path d="M317.922 301.32C347.624 286.337 359.522 250.178 344.498 220.557L236.937 274.816C251.962 304.437 288.22 316.303 317.922 301.32Z" fill="#3F3D56"/>
<path d="M320.1 189.46C320.3 189.324 320.494 189.179 320.682 189.028C320.29 190.198 319.658 191.274 318.827 192.188C318.632 192.402 318.425 192.602 318.212 192.795C318.207 192.746 318.203 192.697 318.2 192.648C318.175 192.174 318.21 191.675 318.216 191.187C318.957 190.747 319.599 190.159 320.1 189.46Z" fill="url(#paint0_linear)"/>
<path d="M323.015 172.174C323.467 171.414 323.728 170.556 323.775 169.674C323.822 168.792 323.654 167.911 323.285 167.108C322.916 166.304 322.357 165.602 321.657 165.061C320.956 164.52 320.134 164.156 319.262 164.001C318.39 163.846 317.493 163.904 316.648 164.17C315.803 164.436 315.035 164.903 314.411 165.529C313.786 166.156 313.323 166.924 313.061 167.769C312.799 168.613 312.747 169.508 312.908 170.377C311.34 171.121 310.028 172.311 309.137 173.798C308.246 175.284 307.815 177 307.9 178.729C307.151 179.876 306.681 181.181 306.527 182.54C306.373 183.9 306.539 185.277 307.012 186.561C307.486 187.845 308.254 189.001 309.254 189.938C310.255 190.874 311.461 191.564 312.776 191.954C314.091 192.343 315.48 192.421 316.83 192.181C318.181 191.941 319.457 191.39 320.557 190.572C321.657 189.754 322.549 188.691 323.164 187.468C323.779 186.244 324.1 184.895 324.1 183.527C324.1 183.387 324.096 183.247 324.089 183.109C325.182 181.436 325.672 179.441 325.476 177.454C325.281 175.466 324.413 173.604 323.015 172.174Z" fill="#2F2E41"/>
<g opacity="0.1">
<path opacity="0.1" d="M312.835 168.989C312.859 168.977 312.883 168.963 312.908 168.951C312.89 168.856 312.878 168.76 312.865 168.664C312.863 168.684 312.859 168.704 312.857 168.724C312.846 168.813 312.841 168.9 312.835 168.989Z" fill="black"/>
<path opacity="0.1" d="M325.455 177.938C325.295 179.274 324.827 180.556 324.089 181.683C324.096 181.822 324.1 181.961 324.1 182.101C324.1 184.371 323.22 186.553 321.643 188.19C320.067 189.828 317.916 190.793 315.642 190.885C313.367 190.976 311.145 190.187 309.442 188.682C307.738 187.176 306.684 185.072 306.501 182.81C306.482 183.046 306.47 183.285 306.47 183.527C306.47 185.858 307.399 188.094 309.052 189.743C310.705 191.391 312.947 192.317 315.285 192.317C317.623 192.317 319.865 191.391 321.518 189.743C323.171 188.094 324.1 185.858 324.1 183.527C324.1 183.387 324.096 183.247 324.089 183.109C325.158 181.475 325.65 179.533 325.487 177.589C325.478 177.705 325.469 177.821 325.455 177.938Z" fill="black"/>
<path opacity="0.1" d="M323.738 168.658C323.643 169.397 323.397 170.108 323.015 170.749C323.169 170.907 323.315 171.072 323.457 171.241C323.757 170.415 323.854 169.529 323.738 168.658H323.738Z" fill="black"/>
</g>
<path d="M287.493 266.49C287.535 266.99 287.671 267.478 287.894 267.928C288.007 268.152 288.172 268.346 288.375 268.494C288.578 268.643 288.814 268.741 289.062 268.781C289.519 268.784 289.967 268.654 290.352 268.408C291.136 268 291.951 267.524 292.361 266.742C292.757 265.984 292.7 265.079 292.633 264.227L292.106 257.524C290.837 257.489 289.561 257.49 288.293 257.559C287.036 257.627 286.816 257.922 286.99 259.145C287.338 261.58 287.169 264.053 287.493 266.49Z" fill="#A27979"/>
<path d="M324.74 271.02L327.761 275.887C327.89 276.17 328.126 276.392 328.417 276.503C328.634 276.535 328.855 276.496 329.049 276.394C330.056 275.955 330.827 275.121 331.567 274.31C332.069 273.76 332.588 273.179 332.777 272.46C332.874 272.069 332.87 271.66 332.764 271.272C332.658 270.884 332.455 270.529 332.173 270.241C331.82 269.935 331.439 269.663 331.034 269.43C328.646 267.823 327.568 264.772 325.211 263.121C325.075 263.009 324.909 262.937 324.734 262.916C324.558 262.927 324.389 262.983 324.243 263.08C323.169 263.668 322.094 264.255 321.02 264.842C319.625 265.603 320.067 265.693 321.127 266.513C322.688 267.721 323.663 269.41 324.74 271.02Z" fill="#A27979"/>
<path d="M294.05 262.613C293.608 262.474 293.112 262.348 292.695 262.551C292.5 262.67 292.334 262.832 292.212 263.024C292.09 263.217 292.013 263.435 291.988 263.662C291.904 264.109 291.914 264.573 291.79 265.011C291.58 265.749 291.016 266.326 290.472 266.869C290.252 267.131 289.967 267.329 289.645 267.443C289.209 267.555 288.746 267.351 288.303 267.428C288.045 267.494 287.81 267.63 287.623 267.819C287.437 268.009 287.306 268.246 287.245 268.504C287.129 269.023 287.112 269.558 287.193 270.083L287.536 273.819C287.596 274.274 287.601 274.735 287.55 275.192C287.423 276.013 286.945 276.734 286.679 277.521C286.414 278.309 286.428 279.314 287.093 279.816C287.325 279.97 287.592 280.064 287.87 280.088C288.148 280.112 288.428 280.067 288.683 279.955C289.192 279.726 289.642 279.385 290 278.958C292.035 276.745 292.943 273.748 294.526 271.194C294.93 270.604 295.291 269.985 295.607 269.343C295.824 268.847 295.962 268.321 296.138 267.809C296.381 267.124 296.672 266.458 297.01 265.815C297.198 265.447 297.918 264.561 297.767 264.15C297.509 263.449 294.735 262.828 294.05 262.613Z" fill="#2F2E41"/>
<path d="M330.737 272.918C330.279 273.774 329.515 274.427 328.597 274.747C328.33 274.819 328.082 274.947 327.869 275.123C327.729 275.293 327.643 275.5 327.62 275.719C327.598 275.938 327.64 276.158 327.742 276.353C327.952 276.739 328.226 277.087 328.551 277.384C330.378 279.311 331.586 281.739 332.02 284.355C332.128 285.015 332.199 285.717 332.595 286.257C333.369 287.311 335.016 287.242 336.18 286.641C336.535 286.479 336.844 286.229 337.076 285.916C337.27 285.577 337.394 285.202 337.439 284.813C337.649 283.852 337.765 282.872 337.785 281.888C337.763 280.03 337.063 278.255 336.729 276.427C336.255 273.834 336.492 271.04 335.281 268.697C335.16 268.421 334.97 268.182 334.728 268.003C334.425 267.844 334.085 267.768 333.743 267.783C332.649 267.738 331.554 267.729 330.459 267.754C330.152 267.761 329.793 267.8 329.634 268.062C329.471 268.329 329.613 268.671 329.756 268.95C330.434 270.273 331.533 271.331 330.737 272.918Z" fill="#2F2E41"/>
<path d="M304.746 226.431C304.44 226.682 304.232 227.034 304.16 227.423C304.087 227.812 304.154 228.214 304.349 228.558C304.592 228.959 305.027 229.332 304.932 229.791C304.833 230.267 304.246 230.428 303.765 230.505C299.522 231.178 295.394 232.416 291.281 233.651L286.966 234.947C285.722 235.32 284.457 235.704 283.382 236.432C282.395 237.102 281.615 238.032 281.127 239.118C280.634 240.221 280.464 241.436 280.288 242.631C279.64 247.027 278.813 251.468 276.845 255.455L287.31 258.877C288.324 259.248 289.375 259.512 290.445 259.664C291.465 259.748 292.492 259.699 293.499 259.516C293.434 257.186 293.394 254.786 293.329 252.456C293.322 251.72 293.274 250.985 293.186 250.254C293.029 249.137 292.681 248.051 292.573 246.929C293.056 246.532 293.757 246.63 294.383 246.648C295.81 246.69 297.204 246.195 298.474 245.543C299.743 244.89 300.924 244.078 302.186 243.412C304.289 242.302 306.682 241.556 308.287 239.805C307.469 242.914 305.537 245.622 305.163 248.815C304.786 252.04 306.102 255.196 307.39 258.178L311.507 267.706C311.962 268.758 312.567 269.94 313.688 270.191C314.386 270.347 315.106 270.086 315.754 269.783C319.543 268.014 322.575 264.687 326.62 263.623C326.319 261.625 324.736 259.973 323.839 258.162C323.083 256.633 322.836 254.913 322.332 253.285C321.829 251.656 320.963 250.006 319.441 249.232C318.718 248.865 317.744 248.545 317.677 247.739C317.672 247.48 317.727 247.223 317.837 246.989C318.38 245.629 319.221 244.407 320.3 243.414C320.439 243.308 320.55 243.169 320.624 243.01C320.664 242.853 320.672 242.69 320.648 242.529C320.571 241.232 321.268 240.019 322.045 238.976C322.822 237.932 323.72 236.94 324.158 235.716C324.911 233.611 324.164 231.299 323.419 229.191C323.118 228.34 322.801 227.462 322.183 226.802C321.213 225.767 319.703 225.469 318.292 225.315C313.728 224.816 308.372 223.623 304.746 226.431Z" fill="#2F2E41"/>
<g opacity="0.1">
<path opacity="0.1" d="M304.271 227.06C304.424 227.029 304.566 226.957 304.683 226.852C304.799 226.748 304.885 226.614 304.932 226.465C304.944 226.406 304.947 226.346 304.942 226.287C304.877 226.335 304.81 226.381 304.746 226.431C304.536 226.596 304.372 226.813 304.271 227.06Z" fill="black"/>
</g>
<path d="M311.958 193.451C312.012 194.49 311.697 195.603 310.896 196.27C310.639 196.484 310.34 196.646 310.093 196.871C309.873 197.096 309.705 197.366 309.601 197.663C309.496 197.959 309.458 198.275 309.488 198.587C309.518 198.9 309.616 199.203 309.776 199.474C309.935 199.745 310.152 199.978 310.41 200.157C311.243 200.664 312.3 200.527 313.261 200.361C314.542 200.182 315.797 199.856 317.002 199.387C318.214 198.913 319.245 198.07 319.951 196.979C318.905 196.397 318.336 195.176 318.272 193.984C318.209 192.79 318.537 191.435 317.779 190.509C317.049 189.617 315.675 189.623 314.562 189.93C314.003 190.083 313.462 190.296 312.903 190.446C312.619 190.522 311.683 190.524 311.498 190.733C311.161 191.111 311.926 192.849 311.958 193.451Z" fill="#FBBEBE"/>
<path opacity="0.1" d="M311.958 193.451C312.012 194.49 311.697 195.603 310.896 196.27C310.639 196.484 310.34 196.646 310.093 196.871C309.873 197.096 309.705 197.366 309.601 197.663C309.496 197.959 309.458 198.275 309.488 198.587C309.518 198.9 309.616 199.203 309.776 199.474C309.935 199.745 310.152 199.978 310.41 200.157C311.243 200.664 312.3 200.527 313.261 200.361C314.542 200.182 315.797 199.856 317.002 199.387C318.214 198.913 319.245 198.07 319.951 196.979C318.905 196.397 318.336 195.176 318.272 193.984C318.209 192.79 318.537 191.435 317.779 190.509C317.049 189.617 315.675 189.623 314.562 189.93C314.003 190.083 313.462 190.296 312.903 190.446C312.619 190.522 311.683 190.524 311.498 190.733C311.161 191.111 311.926 192.849 311.958 193.451Z" fill="black"/>
<path d="M315.166 193.387C318.587 193.387 321.36 190.621 321.36 187.209C321.36 183.798 318.587 181.032 315.166 181.032C311.745 181.032 308.971 183.798 308.971 187.209C308.971 190.621 311.745 193.387 315.166 193.387Z" fill="#A27979"/>
<path d="M295.606 234.603C295.495 235.091 295.297 235.555 295.023 235.974C294.301 237.254 294.04 238.742 294.283 240.19C294.414 240.908 294.72 241.583 295.174 242.156C295.628 242.728 296.216 243.18 296.887 243.472C297.467 243.7 298.185 243.76 298.663 243.361C297.836 242.288 297.792 240.822 297.842 239.469C297.827 239.216 297.888 238.965 298.015 238.746C298.049 238.694 298.094 238.65 298.145 238.616C298.197 238.581 298.256 238.558 298.317 238.547C298.378 238.536 298.441 238.538 298.502 238.552C298.563 238.567 298.62 238.593 298.669 238.631C298.648 239.483 298.813 240.329 299.153 241.111C299.284 241.412 299.508 241.744 299.837 241.736C300.309 241.723 300.436 241.086 300.418 240.616C300.345 238.7 300.251 236.705 299.325 235.025C298.986 234.41 298.534 233.832 298.405 233.142C298.399 232.903 298.316 232.672 298.168 232.483C298.066 232.403 297.947 232.348 297.82 232.321C297.287 232.171 296.024 231.703 295.584 232.201C295.113 232.735 295.691 233.964 295.606 234.603Z" fill="#A27979"/>
<path d="M304.805 201.781C304.095 201.702 303.534 202.35 303.145 202.948C301.695 205.178 300.651 207.646 300.062 210.237C299.762 211.56 299.573 212.934 298.944 214.136C298.792 214.386 298.67 214.652 298.58 214.93C298.526 215.354 298.507 215.781 298.523 216.208C298.457 216.98 298 217.666 297.846 218.425C297.755 218.878 297.773 219.346 297.692 219.801C297.549 220.597 297.111 221.305 296.83 222.063C296.336 223.399 296.341 224.866 295.977 226.242C295.933 226.469 295.834 226.682 295.69 226.863C295.444 227.133 295.05 227.199 294.727 227.372C294.474 227.527 294.256 227.734 294.089 227.98C293.922 228.225 293.81 228.504 293.76 228.796C293.664 229.381 293.653 229.976 293.727 230.564L294.012 234.218C294.305 234.096 294.497 233.764 294.742 233.561C295.19 233.19 295.847 233.273 296.42 233.377L297.255 233.528C298.109 233.682 299.038 233.879 299.586 234.55C300.021 233.871 299.772 232.871 300.441 232.419C300.659 232.272 300.928 232.223 301.158 232.095C301.374 231.955 301.553 231.766 301.68 231.543C301.806 231.32 301.877 231.069 301.887 230.813C301.9 230.3 301.829 229.789 301.677 229.299C302.749 228.848 303.414 227.765 303.834 226.682C304.295 225.371 304.629 224.02 304.831 222.645C305.8 217.215 306.685 211.746 306.773 206.231C306.835 205.309 306.732 204.383 306.472 203.495C306.166 202.625 305.724 201.885 304.805 201.781Z" fill="#D0CDE1"/>
<path d="M320.422 195.868C319.399 196.937 318.092 197.694 316.654 198.05C315.224 198.401 313.763 198.615 312.292 198.691C311.839 198.766 311.375 198.726 310.942 198.574C310.526 198.387 310.21 197.895 310.38 197.472C310.461 197.342 310.517 197.196 310.542 197.044C310.535 196.668 309.98 196.636 309.619 196.748C307.235 197.483 304.948 198.94 303.848 201.174C303.226 202.436 303.021 203.855 302.824 205.247C302.305 208.909 301.788 212.651 302.483 216.283C302.854 218.22 303.566 220.109 303.611 222.08C303.636 223.185 303.449 224.285 303.458 225.39C303.425 225.777 303.528 226.164 303.751 226.482C303.923 226.681 304.181 226.807 304.301 227.04C304.501 227.43 304.234 227.966 304.497 228.318C304.822 228.75 305.499 228.439 305.946 228.135C308.194 226.612 310.908 225.931 313.611 226.21C316.857 226.558 320.083 228.283 323.232 227.421C323.069 227.185 322.93 226.935 322.814 226.673C321.244 221.529 321.35 215.778 323.7 210.937C324.502 209.283 325.568 207.707 325.875 205.896C325.999 205.049 326.009 204.189 325.904 203.339C325.739 201.694 325.346 200.036 324.45 198.646C323.554 197.256 322.071 196.03 320.422 195.868Z" fill="#D0CDE1"/>
<path d="M305.436 236.193C305.183 236.864 305.062 237.578 305.079 238.295C305.056 238.981 305.09 239.668 305.181 240.348C305.234 240.93 305.442 241.486 305.783 241.961C305.958 242.194 306.198 242.371 306.473 242.468C306.748 242.566 307.046 242.58 307.33 242.509C307.553 242.417 307.752 242.276 307.913 242.097C308.075 241.918 308.194 241.705 308.263 241.474C308.396 241.013 308.494 240.542 308.555 240.066C308.827 238.664 309.565 237.348 309.578 235.92C309.588 235.75 309.561 235.581 309.499 235.423C309.231 234.836 307.915 234.177 307.272 234.276C306.468 234.399 305.727 235.515 305.436 236.193Z" fill="#A27979"/>
<path opacity="0.1" d="M323.311 201.083C323.188 202.311 324.38 203.237 324.851 204.378C325.043 204.911 325.153 205.47 325.176 206.036C325.507 209.963 325.25 213.914 324.993 217.846C324.946 219.155 324.783 220.458 324.506 221.739C323.841 224.426 322.206 226.756 320.603 229.015C320.052 229.921 319.209 230.614 318.213 230.981L312.713 233.638C312.024 233.942 311.369 234.317 310.759 234.759C310.052 235.312 309.495 236.034 309.142 236.858C308.075 236.315 306.967 235.826 305.9 235.283C305.65 235.155 305.371 234.989 305.328 234.713C305.27 234.342 305.659 234.08 305.926 233.816C306.427 233.323 306.581 232.591 306.852 231.943C307.737 229.826 309.963 228.471 310.766 226.322C311.075 225.496 311.169 224.563 311.716 223.87C312.029 223.523 312.381 223.213 312.766 222.947C313.614 222.229 314.392 221.434 315.092 220.572C315.406 220.247 315.663 219.871 315.853 219.461C316.093 218.851 316.021 218.171 316.034 217.515C316.075 215.37 317.047 213.37 317.643 211.308C318.203 209.367 318.437 207.33 319.173 205.447C319.909 203.565 321.35 201.589 323.311 201.083Z" fill="black"/>
<path d="M324.026 201.083C323.903 202.311 325.095 203.237 325.566 204.378C325.758 204.911 325.868 205.47 325.891 206.036C326.222 209.963 325.965 213.914 325.707 217.846C325.661 219.155 325.498 220.458 325.221 221.739C324.556 224.426 322.92 226.756 321.317 229.015C320.767 229.921 319.924 230.614 318.927 230.981L313.428 233.638C312.738 233.942 312.084 234.317 311.474 234.759C310.766 235.312 310.21 236.034 309.857 236.858C308.79 236.315 307.682 235.826 306.615 235.283C306.365 235.155 306.086 234.989 306.043 234.713C305.985 234.342 306.373 234.08 306.641 233.816C307.141 233.323 307.296 232.591 307.567 231.943C308.452 229.826 310.678 228.471 311.481 226.322C311.789 225.496 311.884 224.563 312.431 223.87C312.744 223.523 313.096 223.213 313.48 222.947C314.328 222.229 315.107 221.434 315.807 220.572C316.121 220.247 316.378 219.871 316.568 219.461C316.808 218.851 316.736 218.171 316.748 217.515C316.789 215.37 317.762 213.37 318.357 211.308C318.918 209.367 319.152 207.33 319.888 205.447C320.623 203.565 322.064 201.589 324.026 201.083Z" fill="#D0CDE1"/>
<path d="M318.237 177.66C316.329 177.427 314.397 177.826 312.738 178.795C312.982 178.804 313.228 178.821 313.475 178.851C315.308 179.071 317.025 179.861 318.384 181.107C319.743 182.353 320.676 183.994 321.05 185.797C321.424 187.6 321.22 189.475 320.469 191.156C319.717 192.838 318.455 194.242 316.86 195.17C319.132 195.253 321.349 194.456 323.046 192.948C324.743 191.439 325.79 189.334 325.968 187.074C326.146 184.813 325.441 182.571 324 180.817C322.56 179.063 320.495 177.931 318.237 177.66Z" fill="#2F2E41"/>
<path d="M320.949 182.547C321.163 183.03 321.28 183.551 321.291 184.079C321.303 184.608 321.211 185.133 321.019 185.626C320.977 185.498 320.929 185.373 320.874 185.251C319.785 182.833 316.428 181.832 313.377 183.015C311.58 183.712 310.291 185.012 309.757 186.457C308.98 184.119 310.557 181.434 313.452 180.311C316.503 179.128 319.859 180.129 320.949 182.547Z" fill="#2F2E41"/>
<g opacity="0.1">
<path opacity="0.1" d="M320.966 185.434C320.825 183.737 320.194 182.117 319.148 180.771C318.103 179.425 316.688 178.41 315.076 177.85C314.255 178.052 313.467 178.37 312.738 178.795C312.982 178.804 313.228 178.821 313.475 178.851C315.244 179.064 316.908 179.808 318.245 180.983C319.582 182.158 320.531 183.71 320.966 185.434Z" fill="black"/>
<path opacity="0.1" d="M322.396 179.019C322.255 177.322 321.623 175.702 320.578 174.356C319.532 173.01 318.117 171.995 316.505 171.435C315.684 171.637 314.897 171.955 314.167 172.38C314.411 172.389 314.657 172.406 314.904 172.436C316.674 172.649 318.337 173.393 319.674 174.568C321.012 175.743 321.961 177.295 322.396 179.019Z" fill="black"/>
<path opacity="0.1" d="M322.432 169.437C322.347 168.413 321.966 167.436 321.335 166.623C320.704 165.811 319.85 165.199 318.877 164.86C318.382 164.982 317.906 165.174 317.466 165.431C317.613 165.436 317.762 165.446 317.911 165.464C318.979 165.593 319.983 166.042 320.79 166.751C321.597 167.46 322.169 168.397 322.432 169.437Z" fill="black"/>
<path opacity="0.1" d="M325.729 184.243C325.9 186.351 325.304 188.45 324.05 190.156C322.796 191.861 320.968 193.059 318.9 193.53C318.305 194.174 317.618 194.727 316.86 195.17C318.227 195.22 319.586 194.952 320.831 194.387C322.076 193.822 323.172 192.976 324.032 191.916C324.893 190.856 325.494 189.611 325.788 188.279C326.083 186.947 326.062 185.565 325.729 184.243V184.243Z" fill="black"/>
</g>
<path d="M298.31 240.569L297.17 206.201" stroke="#76BF76" stroke-width="2" stroke-miterlimit="10"/>
<path d="M297.17 211.064C299.863 211.064 302.046 208.887 302.046 206.201C302.046 203.516 299.863 201.339 297.17 201.339C294.477 201.339 292.294 203.516 292.294 206.201C292.294 208.887 294.477 211.064 297.17 211.064Z" fill="#76BF76"/>
<path d="M297.873 227.383C297.873 227.383 296.681 212.473 282.467 214.679L297.873 227.383Z" fill="#76BF76"/>
</g>
<defs>
<linearGradient id="paint0_linear" x1="319.437" y1="192.795" x2="319.437" y2="189.028" gradientUnits="userSpaceOnUse">
<stop stop-color="#808080" stop-opacity="0.25"/>
<stop offset="0.53514" stop-color="#808080" stop-opacity="0.12"/>
<stop offset="1" stop-color="#808080" stop-opacity="0.1"/>
</linearGradient>
<clipPath id="clip0">
<rect width="289" height="202" fill="white" transform="translate(62 145)"/>
</clipPath>
</defs>
</svg>
