<svg width="235" height="199" viewBox="0 0 235 199" fill="none" xmlns="http://www.w3.org/2000/svg">
<g clip-path="url(#clip0)">
<path d="M14.0692 107.2C18.6626 87.302 23.0484 75.9044 46.4995 59.4056C47.8812 58.4336 49.7629 59.5339 49.677 61.2211C49.3595 67.4639 50.0874 70.8984 52.3939 74.1847C52.7606 74.7072 52.8954 75.3653 52.7289 75.9817C49.5993 87.5691 50.4242 93.8812 50.0288 103.351C50.0113 103.772 49.8568 104.175 49.6056 104.512C44.6226 111.205 42.8412 122.36 47 132.5C52.3029 143.932 56.7168 150.388 68.8113 161.822C68.9348 161.939 69.0786 162.043 69.2277 162.125C80.4832 168.291 87.7992 171.718 95.2603 173.84C97.3817 174.444 97.5634 178.405 95.7804 179.703C94.2593 180.811 92.955 182.246 91.6706 184.233C91.5574 184.408 91.4167 184.57 91.2556 184.703C85.8316 189.161 81.8729 189.854 73.6971 188.044C73.5677 188.015 73.4369 187.972 73.3159 187.918C60.1164 182.033 52.6968 178.632 40.5 170.5C31.495 165.078 27.9726 160.499 23 151C16.8631 136.376 15.4526 126.384 14.0236 107.808C14.0081 107.606 14.0238 107.396 14.0692 107.2Z" fill="#87A5A6" stroke="#87A5A6"/>
<path d="M119.311 -2.73704C84.202 0.947927 68.3325 12.8916 52.2699 52.0761C51.0853 54.9658 50.7006 58.1258 51.045 61.2298C52.745 76.5534 53.0466 86.0691 50.83 99.1309C50.6192 100.373 50.2607 101.591 49.8044 102.766C43.5306 118.915 43.3444 126.041 48.0001 135C58.2828 152.446 65.2047 159.405 79.5001 167C91.8756 171.935 98.4372 174.144 105.381 175.842C108.718 176.658 111.82 178.26 114.403 180.523C130.334 194.478 139.516 196.728 153.5 189C164.568 181.95 171.327 177.427 181.426 165.837C184.121 162.745 185.568 158.782 185.807 154.687C186.884 136.201 189.959 123.804 213.443 102.405C214.464 101.475 215.421 100.442 216.192 99.2959C218.226 96.2728 219.386 93.7146 219.834 89.0369C219.995 87.3572 219.812 85.6578 219.411 84.0187C215.668 68.7001 212.258 63.6509 206 56.5C197.826 47.6377 192.823 46.0824 185.09 47.8291C183.359 48.2199 181.6 48.5 179.826 48.5H167.958C159.416 48.5 151.923 42.7987 149.646 34.5651L147 25C140.532 5.97851 135.103 0.205856 124.631 -2.4213C122.9 -2.85563 121.086 -2.92336 119.311 -2.73704Z" fill="#F8F2ED" stroke="#F8F2ED"/>
<path d="M138.003 51.0874H131.036C130.681 51.087 130.34 50.9459 130.089 50.6952C129.838 50.4445 129.697 50.1046 129.696 49.75V42.7957C129.697 42.4411 129.838 42.1012 130.089 41.8505C130.34 41.5998 130.681 41.4587 131.036 41.4583H138.003C138.358 41.4587 138.699 41.5998 138.95 41.8505C139.201 42.1012 139.343 42.4411 139.343 42.7957V49.75C139.343 50.1046 139.201 50.4445 138.95 50.6952C138.699 50.9459 138.358 51.087 138.003 51.0874ZM131.036 41.9933C130.823 41.9935 130.619 42.0781 130.468 42.2286C130.317 42.379 130.232 42.583 130.232 42.7957V49.75C130.232 49.9627 130.317 50.1667 130.468 50.3171C130.619 50.4676 130.823 50.5522 131.036 50.5524H138.003C138.216 50.5522 138.421 50.4676 138.571 50.3171C138.722 50.1667 138.807 49.9627 138.807 49.75V42.7957C138.807 42.583 138.722 42.379 138.571 42.2286C138.421 42.0781 138.216 41.9935 138.003 41.9933H131.036Z" fill="#E6E6E6"/>
<g clip-path="url(#clip1)">
<path d="M155.514 132.228C155.407 132.378 155.3 132.527 155.193 132.675C154.887 132.887 154.524 133.001 154.152 133H96.8485C96.4931 133 96.1453 132.897 95.8471 132.702C95.7481 132.571 95.6502 132.438 95.5513 132.306L95.6502 132.251L124.659 116.053C124.917 115.91 125.206 115.834 125.5 115.834C125.794 115.834 126.084 115.908 126.342 116.051L155.416 132.173L155.514 132.228Z" fill="#76BF76"/>
<path d="M154.152 98.1685L129.01 83.5424C127.953 82.9272 126.753 82.6031 125.532 82.6025C124.311 82.6019 123.111 82.9248 122.053 83.539L96.8485 98.1685C96.3584 98.1692 95.8887 98.3656 95.5422 98.7146C95.1957 99.0637 95.0007 99.5369 95 100.031V131.138C95.0006 131.632 95.1955 132.105 95.542 132.454C95.8886 132.803 96.3584 133 96.8485 133H154.152C154.642 132.999 155.111 132.803 155.458 132.454C155.804 132.105 155.999 131.632 156 131.138V100.031C155.999 99.5369 155.804 99.0637 155.458 98.7146C155.111 98.3656 154.642 98.1691 154.152 98.1685ZM155.783 131.138C155.781 131.573 155.609 131.991 155.304 132.299C154.998 132.607 154.584 132.78 154.152 132.781H96.8485C96.4162 132.78 96.0017 132.607 95.696 132.299C95.3903 131.991 95.2182 131.574 95.2175 131.138V100.031C95.218 99.5949 95.39 99.1773 95.6958 98.8693C96.0015 98.5613 96.4161 98.388 96.8485 98.3875L122.053 83.758C123.111 83.1439 124.311 82.8209 125.532 82.8215C126.753 82.8222 127.953 83.1463 129.01 83.7615L154.152 98.3875C154.584 98.388 154.998 98.5613 155.304 98.8693C155.61 99.1773 155.782 99.5949 155.783 100.031V131.138Z" fill="#3F3D56"/>
<path d="M125.533 115.768C125.343 115.769 125.155 115.737 124.976 115.674L124.943 115.663L124.937 115.589C124.916 115.599 124.896 115.609 124.875 115.618L124.853 115.628L124.831 115.618C124.785 115.598 124.74 115.575 124.696 115.55L104.677 104.218V81.0812C104.678 80.544 104.89 80.0289 105.267 79.649C105.644 79.2691 106.156 79.0555 106.689 79.0548H144.311C144.844 79.0555 145.356 79.2691 145.733 79.649C146.11 80.0289 146.322 80.544 146.323 81.0812V104.248L146.295 104.264L126.369 115.55C126.114 115.694 125.825 115.769 125.533 115.768Z" fill="white"/>
<path d="M125.533 115.823C125.337 115.824 125.143 115.791 124.958 115.726L124.892 115.702L124.89 115.671L124.853 115.687L124.809 115.668C124.762 115.647 124.715 115.623 124.669 115.597L104.623 104.25V81.0811C104.624 80.5294 104.842 80.0004 105.229 79.6102C105.616 79.2201 106.141 79.0006 106.689 79H144.311C144.859 79.0006 145.384 79.2201 145.771 79.6102C146.159 80.0004 146.376 80.5294 146.377 81.0811V104.28L126.396 115.597C126.132 115.746 125.835 115.823 125.533 115.823ZM125.096 115.541C125.496 115.656 125.925 115.608 126.29 115.407L146.16 104.152V81.0811C146.159 80.5875 145.964 80.1142 145.618 79.7651C145.271 79.416 144.801 79.2196 144.311 79.2191H106.689C106.199 79.2196 105.729 79.416 105.383 79.7651C105.036 80.1142 104.841 80.5875 104.841 81.0811V104.122L106.144 104.86L124.776 115.407C124.801 115.421 124.827 115.434 124.853 115.447C124.879 115.434 124.905 115.421 124.93 115.407L125.077 115.324L125.096 115.541Z" fill="#3F3D56"/>
<path d="M155.518 98.9768L147.627 103.446L146.268 104.216L126.343 115.502C126.095 115.641 125.816 115.714 125.533 115.714C125.349 115.714 125.167 115.683 124.994 115.623C124.946 115.607 124.899 115.589 124.853 115.568C124.808 115.548 124.765 115.526 124.723 115.502L106.091 104.955L104.732 104.186L95.498 98.9593C95.4729 98.9448 95.4545 98.9209 95.4467 98.8928C95.439 98.8647 95.4426 98.8347 95.4567 98.8092C95.4708 98.784 95.4944 98.7654 95.5221 98.7576C95.5498 98.7498 95.5795 98.7534 95.6046 98.7676L104.732 103.934L106.091 104.703L124.829 115.31C124.891 115.346 124.956 115.376 125.023 115.401C125.051 115.412 125.08 115.422 125.11 115.431C125.296 115.488 125.492 115.507 125.685 115.487C125.879 115.466 126.066 115.406 126.236 115.31L146.268 103.965L147.627 103.195L155.412 98.7862C155.424 98.7792 155.438 98.7747 155.452 98.7729C155.466 98.7712 155.48 98.7723 155.494 98.7762C155.508 98.7801 155.521 98.7866 155.532 98.7955C155.543 98.8043 155.553 98.8153 155.56 98.8278C155.567 98.8404 155.571 98.8541 155.573 98.8684C155.574 98.8827 155.573 98.8971 155.57 98.911C155.566 98.9248 155.559 98.9377 155.55 98.949C155.542 98.9603 155.531 98.9698 155.518 98.9768Z" fill="#3F3D56"/>
<path d="M112.841 86.2293H109.796C109.565 86.2293 109.344 86.137 109.181 85.9727C109.018 85.8083 108.926 85.5855 108.926 85.3531C108.926 85.1207 109.018 84.8978 109.181 84.7334C109.344 84.5691 109.565 84.4768 109.796 84.4768H112.841C113.071 84.4768 113.293 84.5691 113.456 84.7334C113.619 84.8978 113.71 85.1207 113.71 85.3531C113.71 85.5855 113.619 85.8083 113.456 85.9727C113.293 86.137 113.071 86.2293 112.841 86.2293Z" fill="#C05840"/>
<path d="M116.429 89.1866H109.796C109.565 89.1866 109.344 89.0943 109.181 88.93C109.018 88.7656 108.926 88.5427 108.926 88.3103C108.926 88.0779 109.018 87.8551 109.181 87.6907C109.344 87.5264 109.565 87.4341 109.796 87.4341H116.429C116.66 87.4341 116.881 87.5264 117.044 87.6907C117.207 87.8551 117.299 88.0779 117.299 88.3103C117.299 88.5427 117.207 88.7656 117.044 88.93C116.881 89.0943 116.66 89.1866 116.429 89.1866Z" fill="#E6E6E6"/>
<path d="M134.96 97.0732H116.149C115.918 97.0732 115.697 96.9809 115.534 96.8165C115.371 96.6522 115.279 96.4293 115.279 96.1969C115.279 95.9645 115.371 95.7416 115.534 95.5773C115.697 95.413 115.918 95.3207 116.149 95.3207H134.96C135.191 95.3207 135.412 95.413 135.575 95.5773C135.738 95.7416 135.83 95.9645 135.83 96.1969C135.83 96.4293 135.738 96.6522 135.575 96.8165C135.412 96.9809 135.191 97.0732 134.96 97.0732Z" fill="#76BF76"/>
<path d="M136.7 100.469H114.3C114.07 100.469 113.848 100.376 113.685 100.212C113.522 100.048 113.431 99.8249 113.431 99.5925C113.431 99.3601 113.522 99.1372 113.685 98.9729C113.848 98.8086 114.07 98.7162 114.3 98.7162H136.7C136.93 98.7162 137.152 98.8086 137.315 98.9729C137.478 99.1372 137.57 99.3601 137.57 99.5925C137.57 99.8249 137.478 100.048 137.315 100.212C137.152 100.376 136.93 100.469 136.7 100.469Z" fill="#E6E6E6"/>
<path d="M136.7 103.755H114.3C114.07 103.755 113.848 103.662 113.685 103.498C113.522 103.334 113.431 103.111 113.431 102.878C113.431 102.646 113.522 102.423 113.685 102.259C113.848 102.094 114.07 102.002 114.3 102.002H136.7C136.93 102.002 137.152 102.094 137.315 102.259C137.478 102.423 137.57 102.646 137.57 102.878C137.57 103.111 137.478 103.334 137.315 103.498C137.152 103.662 136.93 103.755 136.7 103.755Z" fill="#E6E6E6"/>
</g>
<path d="M56.8091 9.62903H49.8419C49.4867 9.62863 49.1461 9.4876 48.8949 9.23688C48.6438 8.98616 48.5025 8.64623 48.5021 8.29167V1.33737C48.5025 0.982799 48.6438 0.64287 48.8949 0.392153C49.1461 0.141436 49.4867 0.000405637 49.8419 0H56.8091C57.1643 0.000405637 57.5048 0.141436 57.756 0.392153C58.0072 0.64287 58.1485 0.982799 58.1489 1.33737V8.29167C58.1485 8.64623 58.0072 8.98616 57.756 9.23688C57.5048 9.4876 57.1643 9.62863 56.8091 9.62903ZM49.8419 0.534946C49.6288 0.535178 49.4244 0.619793 49.2737 0.770226C49.123 0.920658 49.0382 1.12462 49.038 1.33737V8.29167C49.0382 8.50441 49.123 8.70837 49.2737 8.85881C49.4244 9.00924 49.6288 9.09385 49.8419 9.09409H56.8091C57.0222 9.09385 57.2265 9.00924 57.3773 8.85881C57.528 8.70837 57.6127 8.50441 57.613 8.29167V1.33737C57.6127 1.12462 57.528 0.920658 57.3773 0.770226C57.2265 0.619793 57.0222 0.535178 56.8091 0.534946H49.8419Z" fill="#E6E6E6"/>
<path d="M133.716 47.6102H126.749C126.393 47.6098 126.053 47.4688 125.802 47.218C125.55 46.9673 125.409 46.6274 125.409 46.2728V39.3185C125.409 38.964 125.55 38.624 125.802 38.3733C126.053 38.1226 126.393 37.9816 126.749 37.9812H133.716C134.071 37.9816 134.411 38.1226 134.663 38.3733C134.914 38.624 135.055 38.964 135.056 39.3185V46.2728C135.055 46.6274 134.914 46.9673 134.663 47.218C134.411 47.4688 134.071 47.6098 133.716 47.6102ZM126.749 38.5161C126.535 38.5163 126.331 38.601 126.18 38.7514C126.03 38.9018 125.945 39.1058 125.945 39.3185V46.2728C125.945 46.4856 126.03 46.6895 126.18 46.84C126.331 46.9904 126.535 47.075 126.749 47.0753H133.716C133.929 47.075 134.133 46.9904 134.284 46.84C134.435 46.6895 134.519 46.4856 134.52 46.2728V39.3185C134.519 39.1058 134.435 38.9018 134.284 38.7514C134.133 38.601 133.929 38.5163 133.716 38.5161H126.749Z" fill="#E6E6E6"/>
<path d="M12.5945 105.652H5.62731C5.27209 105.651 4.93153 105.51 4.68035 105.26C4.42917 105.009 4.28788 104.669 4.28748 104.315V97.3602C4.28788 97.0056 4.42917 96.6657 4.68035 96.415C4.93153 96.1643 5.27209 96.0232 5.62731 96.0228H12.5945C12.9497 96.0232 13.2902 96.1643 13.5414 96.415C13.7926 96.6657 13.9339 97.0056 13.9343 97.3602V104.315C13.9339 104.669 13.7926 105.009 13.5414 105.26C13.2902 105.51 12.9497 105.651 12.5945 105.652ZM5.62731 96.5578C5.41418 96.558 5.20984 96.6426 5.05912 96.7931C4.90841 96.9435 4.82364 97.1475 4.82341 97.3602V104.315C4.82364 104.527 4.90841 104.731 5.05912 104.882C5.20984 105.032 5.41418 105.117 5.62731 105.117H12.5945C12.8076 105.117 13.0119 105.032 13.1627 104.882C13.3134 104.731 13.3981 104.527 13.3984 104.315V97.3602C13.3981 97.1475 13.3134 96.9435 13.1627 96.7931C13.0119 96.6426 12.8076 96.558 12.5945 96.5578H5.62731Z" fill="#E6E6E6"/>
<path d="M8.30699 102.175H1.33984C0.984615 102.174 0.644058 102.033 0.392878 101.783C0.141698 101.532 0.000406386 101.192 0 100.837V93.883C0.000406386 93.5285 0.141698 93.1885 0.392878 92.9378C0.644058 92.6871 0.984615 92.5461 1.33984 92.5457H8.30699C8.66221 92.5461 9.00277 92.6871 9.25395 92.9378C9.50513 93.1885 9.64642 93.5285 9.64683 93.883V100.837C9.64642 101.192 9.50513 101.532 9.25395 101.783C9.00277 102.033 8.66221 102.174 8.30699 102.175ZM1.33984 93.0806C1.1267 93.0808 0.92236 93.1655 0.771649 93.3159C0.620939 93.4663 0.536167 93.6703 0.535935 93.883V100.837C0.536167 101.05 0.620939 101.254 0.771649 101.404C0.92236 101.555 1.1267 101.64 1.33984 101.64H8.30699C8.52013 101.64 8.72447 101.555 8.87518 101.404C9.02589 101.254 9.11066 101.05 9.11089 100.837V93.883C9.11066 93.6703 9.02589 93.4663 8.87518 93.3159C8.72447 93.1655 8.52013 93.0808 8.30699 93.0806H1.33984Z" fill="#E6E6E6"/>
<path d="M24.7681 23.0133H89.2452C92.3566 23.0133 95.3753 24.0699 97.8053 26.0094C100.235 27.949 101.932 30.656 102.616 33.6856L135.195 177.925C135.551 179.498 135.557 181.13 135.214 182.706C134.87 184.282 134.186 185.764 133.208 187.048C132.23 188.332 130.983 189.387 129.554 190.139C128.124 190.891 126.547 191.322 124.934 191.401L58.6508 194.661C55.1015 194.835 51.6099 193.715 48.8274 191.509C46.045 189.302 44.1618 186.161 43.5292 182.671L25.0484 80.6917L23.6736 81.0838L20.1374 61.755L21.5527 61.4018L16.394 32.9358C16.1731 31.7166 16.2243 30.4637 16.5441 29.2665C16.8639 28.0692 17.4443 26.9572 18.2441 26.0096C19.0438 25.0619 20.0432 24.3021 21.1708 23.7842C22.2985 23.2663 23.5268 23.003 24.7681 23.0133V23.0133Z" fill="#3F3D56"/>
<path d="M80.7569 26.1222H88.2833C90.4448 26.1222 92.5412 26.8601 94.2246 28.2133C95.908 29.5665 97.0772 31.4537 97.5379 33.5616L128.809 176.624C128.989 177.448 128.989 178.301 128.809 179.124C128.628 179.948 128.272 180.723 127.764 181.397C127.256 182.07 126.608 182.626 125.865 183.027C125.122 183.428 124.301 183.664 123.459 183.719L57.3902 188.041C55.5263 188.163 53.6827 187.596 52.2111 186.447C50.7396 185.299 49.7432 183.65 49.4121 181.815L22.728 33.9459C22.5553 32.9888 22.5951 32.0056 22.8447 31.0655C23.0943 30.1255 23.5475 29.2516 24.1723 28.5055C24.7972 27.7594 25.5785 27.1593 26.4611 26.7475C27.3437 26.3357 28.3061 26.1222 29.2804 26.1222H36.4204C37.1115 26.1222 37.7832 26.3496 38.3317 26.7692C38.8802 27.1888 39.2749 27.7772 39.4545 28.4432C39.6131 29.0312 39.9615 29.5507 40.4457 29.9211C40.93 30.2915 41.523 30.4922 42.1331 30.4922H76.0291C77.2238 30.4922 78.3744 30.0421 79.2509 29.2319C80.1274 28.4217 80.6653 27.3112 80.7569 26.1222L80.7569 26.1222Z" fill="white"/>
<path d="M27.8687 50.4468H99.5435L107.179 84.7887L34.5678 86.126L27.8687 50.4468Z" fill="#2B4E62"/>
<path d="M95.9324 115.483H112.807L113.342 118.707H96.4683L95.9324 115.483Z" fill="#2B4E62"/>
<path d="M109.662 99.0333L38.097 100.546L38.1042 100.882L109.669 99.3695L109.662 99.0333Z" fill="#2F2E41"/>
<path d="M111.85 108.95L38.9386 110.631L38.9464 110.967L111.858 109.286L111.85 108.95Z" fill="#2F2E41"/>
<path d="M102.899 149.987H119.774L120.31 153.211H103.435L102.899 149.987Z" fill="#2B4E62"/>
<path d="M116.629 133.537L45.0642 135.05L45.0713 135.386L116.636 133.873L116.629 133.537Z" fill="#2F2E41"/>
<path d="M118.817 143.454L45.9058 145.135L45.9135 145.471L118.825 143.79L118.817 143.454Z" fill="#2F2E41"/>
<path d="M164.95 195.578L161.757 195.578L160.238 183.286L164.95 183.286L164.95 195.578Z" fill="#A0616A"/>
<path d="M165.764 198.668L155.469 198.667V198.537C155.469 197.477 155.892 196.459 156.643 195.709C157.394 194.959 158.414 194.538 159.476 194.538H159.477L165.764 194.538L165.764 198.668Z" fill="#2F2E41"/>
<path d="M204.614 193.491L201.506 194.222L197.204 182.605L201.791 181.526L204.614 193.491Z" fill="#A0616A"/>
<path d="M206.116 196.312L196.095 198.668L196.065 198.541C195.821 197.508 195.999 196.422 196.558 195.52C197.117 194.618 198.012 193.974 199.047 193.731L199.047 193.731L205.167 192.292L206.116 196.312Z" fill="#2F2E41"/>
<path d="M164.298 143.731C164.304 143.09 164.494 127.973 168.645 122.257L168.707 122.172L183.175 124.165L182.851 127.338C183.488 127.955 188.493 133.176 189.939 145.54L205.295 186.708L198.156 187.356L177.023 142.416L165.839 191.266H158.762L164.298 143.731Z" fill="#2F2E41"/>
<path d="M166.95 122.814L168.365 115.403C168.088 115.047 166.861 113.339 167.134 111.336C167.312 110.03 168.094 108.884 169.457 107.93L173.123 99.3926L173.172 99.3637C173.419 99.2185 179.256 95.8496 182.438 99.028C182.517 99.0896 190.352 105.297 187.206 113.671L183.322 125.302L166.95 122.814Z" fill="#CCCCCC"/>
<path d="M162.03 132.841C162.411 132.798 162.778 132.671 163.106 132.471C163.433 132.27 163.712 132.001 163.923 131.681C164.135 131.361 164.273 130.999 164.329 130.62C164.385 130.241 164.357 129.854 164.247 129.487L171.818 124.043L167.286 122.322L160.792 127.756C160.186 127.981 159.684 128.42 159.381 128.99C159.078 129.56 158.995 130.221 159.148 130.847C159.301 131.474 159.678 132.023 160.209 132.391C160.741 132.758 161.388 132.918 162.03 132.841Z" fill="#A0616A"/>
<path d="M163.421 124.034L174.979 114.945L171.543 103.228C171.381 102.673 171.335 102.091 171.408 101.517C171.481 100.944 171.672 100.392 171.968 99.8954C172.243 99.4274 172.612 99.0217 173.052 98.7043C173.493 98.3869 173.995 98.1649 174.527 98.0524C176.505 97.6345 178.301 98.7403 179.864 101.34L179.876 101.363C180.134 101.994 186.155 116.85 181.558 120.027C177.06 123.135 166.632 127.659 166.527 127.704L166.405 127.757L163.421 124.034Z" fill="#CCCCCC"/>
<path d="M178.782 95.938C182.648 95.938 185.783 92.8091 185.783 88.9495C185.783 85.0899 182.648 81.9611 178.782 81.9611C174.915 81.9611 171.78 85.0899 171.78 88.9495C171.78 92.8091 174.915 95.938 178.782 95.938Z" fill="#A0616A"/>
<path d="M189.758 86.455C193.179 86.455 195.952 83.687 195.952 80.2725C195.952 76.858 193.179 74.09 189.758 74.09C186.337 74.09 183.564 76.858 183.564 80.2725C183.564 83.687 186.337 86.455 189.758 86.455Z" fill="#2F2E41"/>
<path d="M195.101 85.3919C194.299 85.9702 193.37 86.3486 192.392 86.4952C191.414 86.6418 190.415 86.5524 189.478 86.2346C188.542 85.9167 187.695 85.3796 187.009 84.6682C186.323 83.9568 185.818 83.0918 185.536 82.1456C185.642 82.9936 185.924 83.8102 186.363 84.544C186.802 85.2778 187.389 85.9128 188.086 86.4089C188.783 86.905 189.576 87.2514 190.414 87.4262C191.252 87.601 192.118 87.6005 192.956 87.4247C193.794 87.2489 194.586 86.9015 195.283 86.4046C195.979 85.9077 196.565 85.2721 197.003 84.5377C197.442 83.8034 197.722 82.9864 197.828 82.1383C197.934 81.2902 197.863 80.4293 197.618 79.6102C197.757 80.7107 197.596 81.8282 197.154 82.8455C196.711 83.8628 196.001 84.7423 195.101 85.3919Z" fill="#2F2E41"/>
<path d="M170.657 85.3988C171.738 83.4665 172.152 82.6594 173.546 81.4844C174.779 80.4453 176.295 80.1401 177.519 81.1247C178.966 80.5007 180.576 80.3592 182.11 80.7212C183.644 81.0833 185.02 81.9296 186.033 83.1344C187.047 84.3393 187.644 85.8384 187.737 87.4091C187.829 88.9798 187.411 90.5383 186.545 91.853C185.679 93.1678 184.412 94.1687 182.931 94.7071C181.449 95.2455 179.834 95.2927 178.324 94.8416C176.814 94.3905 175.49 93.4652 174.548 92.2031C173.607 90.9411 173.099 89.4096 173.099 87.8362C173.1 87.5599 173.116 87.2839 173.149 87.0095C172.085 86.8604 171.72 85.5478 170.657 85.3988Z" fill="#2F2E41"/>
<path d="M234.732 199H132.636C132.565 199 132.497 198.972 132.447 198.922C132.397 198.871 132.368 198.803 132.368 198.733C132.368 198.662 132.397 198.594 132.447 198.543C132.497 198.493 132.565 198.465 132.636 198.465H234.732C234.803 198.465 234.871 198.493 234.921 198.543C234.972 198.594 235 198.662 235 198.733C235 198.803 234.972 198.871 234.921 198.922C234.871 198.972 234.803 199 234.732 199Z" fill="#3F3D56"/>
</g>
<defs>
<clipPath id="clip0">
<rect width="235" height="199" fill="white"/>
</clipPath>
<clipPath id="clip1">
<rect width="61" height="54" fill="white" transform="translate(95 79)"/>
</clipPath>
</defs>
</svg>
