<svg width="218" height="68" viewBox="0 0 218 68" fill="none" xmlns="http://www.w3.org/2000/svg">
<path d="M64.9624 17.1226L44.5674 58.4014C43.3232 60.9489 42.1383 62.7114 41.0127 63.689C39.887 64.6369 38.4652 65.1108 36.7471 65.1108C35.3252 65.1108 34.0514 64.7998 32.9258 64.1777C32.0667 63.7038 31.3854 63.1558 30.8818 62.5337C30.4079 61.882 29.8006 60.7267 29.0601 59.0679L10.8867 19.0332C9.87956 16.7819 8.96126 15.2563 8.13184 14.4565C7.33203 13.6271 6.17676 13.0791 4.66602 12.8125C2.88867 12.4867 2 11.3906 2 9.52441C2 7.24349 3.55518 5.49577 6.66553 4.28125C9.77588 3.03711 14.234 2.41504 20.04 2.41504C26.083 2.41504 30.5264 2.87419 33.3701 3.79248C36.2139 4.71077 37.6357 6.13265 37.6357 8.05811C37.6357 9.30225 36.8656 10.4575 35.3252 11.5239C34.1403 12.3237 33.5479 13.0791 33.5479 13.79C33.5479 14.4417 33.8145 15.3748 34.3477 16.5894L39.9019 29.1196C40.7017 30.9562 41.6051 31.8745 42.6123 31.8745C43.5898 31.8745 44.4637 31.3857 45.2339 30.4082C46.0041 29.4307 47.0409 27.5052 48.3442 24.6318C50.6844 19.4775 52.047 16.4412 52.4321 15.5229C52.8172 14.575 53.0098 13.8493 53.0098 13.3457C53.0098 12.3385 52.3136 11.4795 50.9214 10.7686C49.381 9.96875 48.6108 8.94678 48.6108 7.70264C48.6108 4.17757 53.3356 2.41504 62.7852 2.41504C67.4951 2.41504 70.8128 2.80013 72.7383 3.57031C74.6934 4.31087 75.6709 5.59945 75.6709 7.43604C75.6709 9.62809 74.3971 10.887 71.8496 11.2129C70.0426 11.4202 68.8726 11.7165 68.3394 12.1016C67.3914 12.7829 66.2658 14.4565 64.9624 17.1226ZM109.618 44.0938H88.7344C87.8161 44.0938 87.3569 44.4937 87.3569 45.2935C87.3569 47.2189 88.3937 49.0407 90.4673 50.7588C92.5705 52.4473 94.8218 53.2915 97.2212 53.2915C98.6431 53.2915 100.213 53.0249 101.931 52.4917C103.679 51.9289 105.116 51.2476 106.241 50.4478C107.248 49.7368 108.048 49.3813 108.641 49.3813C109.411 49.3813 110.166 49.8553 110.907 50.8032C111.647 51.7511 112.018 52.7287 112.018 53.7358C112.018 55.8687 110.685 57.9274 108.019 59.9121C103.309 63.4372 97.8729 65.1997 91.7114 65.1997C85.4907 65.1997 80.2772 63.3927 76.0708 59.7788C74.0269 58.0015 72.3384 55.8538 71.0054 53.3359C69.2576 49.9886 68.3838 46.4635 68.3838 42.7607C68.3838 37.7842 69.8945 33.3112 72.916 29.3418C75.5228 25.9056 78.8405 23.3433 82.8691 21.6548C85.8906 20.381 89.1639 19.7441 92.689 19.7441C98.3172 19.7441 103.101 21.3438 107.041 24.543C109.026 26.1426 110.625 28.0384 111.84 30.2305C113.232 32.7188 113.928 35.1478 113.928 37.5176C113.928 39.443 113.528 41.0278 112.729 42.272C111.929 43.4865 110.892 44.0938 109.618 44.0938ZM89.8896 35.7847H94.3774C96.2733 35.7847 97.2212 34.9108 97.2212 33.1631C97.2212 31.5635 96.762 30.2601 95.8438 29.2529C94.9255 28.2458 93.7257 27.7422 92.2446 27.7422C90.5858 27.7422 89.2824 28.3939 88.3345 29.6973C87.4458 30.9118 87.0015 32.1411 87.0015 33.3853C87.0015 34.2739 87.2088 34.896 87.6235 35.2515C88.0679 35.6069 88.8232 35.7847 89.8896 35.7847ZM162.405 33.6519L150.897 56.0464C149.12 59.5122 147.609 61.9264 146.365 63.2891C145.121 64.6221 143.788 65.2886 142.366 65.2886C140.973 65.2886 139.848 64.785 138.989 63.7778C137.182 61.7635 135.597 59.4826 134.234 56.9351L121.615 32.9854C120.934 31.682 120.267 30.7489 119.616 30.186C118.994 29.5936 118.12 29.1493 116.994 28.853C114.743 28.2013 113.617 26.9868 113.617 25.2095C113.617 23.4025 115.009 22.0843 117.794 21.2549C120.578 20.4255 124.977 20.0107 130.991 20.0107C136.027 20.0107 139.729 20.381 142.099 21.1216C144.499 21.8325 145.698 22.9434 145.698 24.4541C145.698 25.5205 145.135 26.5425 144.01 27.52C143.299 28.1717 142.84 28.6605 142.632 28.9863C142.425 29.3122 142.321 29.7269 142.321 30.2305C142.321 31.2376 142.973 32.9113 144.276 35.2515C145.58 37.5324 146.794 38.6729 147.92 38.6729C148.66 38.6729 149.268 38.3914 149.742 37.8286C150.216 37.2658 151.075 35.8143 152.319 33.4741C153.237 31.756 153.696 30.4526 153.696 29.564C153.696 28.853 153.222 28.0088 152.274 27.0312C151.267 25.9648 150.764 24.9725 150.764 24.0542C150.764 22.6323 151.697 21.6104 153.563 20.9883C155.459 20.3662 158.554 20.0552 162.85 20.0552C168.893 20.0552 171.914 21.3586 171.914 23.9653C171.914 25.4761 170.833 26.5721 168.67 27.2534C166.982 27.7866 165.827 28.3643 165.205 28.9863C164.612 29.6084 163.679 31.1636 162.405 33.6519ZM211.193 44.0938H190.31C189.391 44.0938 188.932 44.4937 188.932 45.2935C188.932 47.2189 189.969 49.0407 192.042 50.7588C194.146 52.4473 196.397 53.2915 198.796 53.2915C200.218 53.2915 201.788 53.0249 203.506 52.4917C205.254 51.9289 206.691 51.2476 207.816 50.4478C208.824 49.7368 209.623 49.3813 210.216 49.3813C210.986 49.3813 211.741 49.8553 212.482 50.8032C213.222 51.7511 213.593 52.7287 213.593 53.7358C213.593 55.8687 212.26 57.9274 209.594 59.9121C204.884 63.4372 199.448 65.1997 193.287 65.1997C187.066 65.1997 181.852 63.3927 177.646 59.7788C175.602 58.0015 173.914 55.8538 172.581 53.3359C170.833 49.9886 169.959 46.4635 169.959 42.7607C169.959 37.7842 171.47 33.3112 174.491 29.3418C177.098 25.9056 180.416 23.3433 184.444 21.6548C187.466 20.381 190.739 19.7441 194.264 19.7441C199.892 19.7441 204.676 21.3438 208.616 24.543C210.601 26.1426 212.201 28.0384 213.415 30.2305C214.807 32.7188 215.503 35.1478 215.503 37.5176C215.503 39.443 215.104 41.0278 214.304 42.272C213.504 43.4865 212.467 44.0938 211.193 44.0938ZM191.465 35.7847H195.953C197.848 35.7847 198.796 34.9108 198.796 33.1631C198.796 31.5635 198.337 30.2601 197.419 29.2529C196.501 28.2458 195.301 27.7422 193.82 27.7422C192.161 27.7422 190.858 28.3939 189.91 29.6973C189.021 30.9118 188.577 32.1411 188.577 33.3853C188.577 34.2739 188.784 34.896 189.199 35.2515C189.643 35.6069 190.398 35.7847 191.465 35.7847Z" fill="white"/>
<path d="M64.9624 17.1226L66.7555 18.0085L66.7592 18.001L64.9624 17.1226ZM44.5674 58.4014L42.7743 57.5154L42.7702 57.5237L44.5674 58.4014ZM41.0127 63.689L42.301 65.2188L42.3126 65.209L42.3241 65.199L41.0127 63.689ZM32.9258 64.1777L33.8932 62.4273L33.8919 62.4266L32.9258 64.1777ZM30.8818 62.5337L29.2644 63.71L29.2948 63.7519L29.3273 63.7921L30.8818 62.5337ZM29.0601 59.0679L30.8864 58.2526L30.8812 58.2412L29.0601 59.0679ZM10.8867 19.0332L9.06106 19.8499L9.06557 19.8599L10.8867 19.0332ZM8.13184 14.4565L6.69215 15.8448L6.71739 15.871L6.74356 15.8962L8.13184 14.4565ZM4.66602 12.8125L4.30535 14.7798L4.31844 14.7821L4.66602 12.8125ZM6.66553 4.28125L7.39299 6.14426L7.40066 6.14126L7.40831 6.1382L6.66553 4.28125ZM35.3252 11.5239L36.4441 13.1816L36.4539 13.175L36.4636 13.1683L35.3252 11.5239ZM34.3477 16.5894L32.5164 17.3933L32.5192 17.3998L34.3477 16.5894ZM39.9019 29.1196L41.7356 28.3211L41.7303 28.3092L39.9019 29.1196ZM48.3442 24.6318L46.5231 23.805L46.5229 23.8056L48.3442 24.6318ZM52.4321 15.5229L54.2765 16.2964L54.2808 16.2861L54.2851 16.2757L52.4321 15.5229ZM50.9214 10.7686L49.9997 12.5436L50.0118 12.5498L50.9214 10.7686ZM72.7383 3.57031L71.9955 5.42727L72.0126 5.43411L72.0298 5.44063L72.7383 3.57031ZM71.8496 11.2129L72.0776 13.1999L72.0905 13.1984L72.1034 13.1967L71.8496 11.2129ZM68.3394 12.1016L69.5066 13.7256L69.5103 13.7229L68.3394 12.1016ZM63.1693 16.2366L42.7743 57.5154L46.3605 59.2873L66.7555 18.0085L63.1693 16.2366ZM42.7702 57.5237C41.5569 60.0082 40.5147 61.4725 39.7013 62.1789L42.3241 65.199C43.762 63.9503 45.0896 61.8896 46.3645 59.279L42.7702 57.5237ZM39.7244 62.1591C39.0182 62.7538 38.0769 63.1108 36.7471 63.1108V67.1108C38.8535 67.1108 40.7559 66.5199 42.301 65.2188L39.7244 62.1591ZM36.7471 63.1108C35.6271 63.1108 34.6923 62.8689 33.8932 62.4273L31.9584 65.9282C33.4106 66.7307 35.0233 67.1108 36.7471 67.1108V63.1108ZM33.8919 62.4266C33.2094 62.05 32.7453 61.6569 32.4363 61.2753L29.3273 63.7921C30.0256 64.6546 30.9241 65.3575 31.9596 65.9289L33.8919 62.4266ZM32.4993 61.3573C32.1588 60.8891 31.6227 59.902 30.8863 58.2526L27.2338 59.8832C27.9785 61.5514 28.657 62.8749 29.2644 63.71L32.4993 61.3573ZM30.8812 58.2412L12.7079 18.2065L9.06557 19.8599L27.2389 59.8946L30.8812 58.2412ZM12.7124 18.2165C11.6926 15.9371 10.6463 14.1028 9.52011 13.0169L6.74356 15.8962C7.27627 16.4099 8.06647 17.6267 9.06108 19.8499L12.7124 18.2165ZM9.57152 13.0683C8.39476 11.8479 6.80406 11.1589 5.01359 10.8429L4.31844 14.7821C5.54946 14.9993 6.2693 15.4063 6.69215 15.8448L9.57152 13.0683ZM5.02667 10.8453C4.47242 10.7437 4.28751 10.5697 4.22002 10.4865C4.14607 10.3953 4 10.1477 4 9.52441H0C0 10.7674 0.298265 12.0009 1.11299 13.0057C1.93417 14.0185 3.08227 14.5555 4.30536 14.7797L5.02667 10.8453ZM4 9.52441C4 8.44062 4.63034 7.22301 7.39299 6.14426L5.93807 2.41824C2.48001 3.76853 0 6.04636 0 9.52441H4ZM7.40831 6.1382C10.1698 5.03362 14.3296 4.41504 20.04 4.41504V0.415039C14.1385 0.415039 9.38198 1.0406 5.92275 2.4243L7.40831 6.1382ZM20.04 4.41504C26.0422 4.41504 30.2239 4.87819 32.7555 5.69571L33.9847 1.88925C30.8289 0.870178 26.1238 0.415039 20.04 0.415039V4.41504ZM32.7555 5.69571C34.0108 6.10105 34.7506 6.55732 35.1551 6.96182C35.5095 7.31622 35.6357 7.65146 35.6357 8.05811H39.6357C39.6357 6.53929 39.051 5.20087 37.9835 4.13339C36.9662 3.11602 35.5732 2.4022 33.9847 1.88925L32.7555 5.69571ZM35.6357 8.05811C35.6357 8.36117 35.4741 8.98832 34.1868 9.87954L36.4636 13.1683C38.257 11.9267 39.6357 10.2433 39.6357 8.05811H35.6357ZM34.2062 9.86623C33.517 10.3315 32.8897 10.8552 32.4185 11.456C31.9422 12.0632 31.5479 12.8528 31.5479 13.79H35.5479C35.5479 14.0163 35.4497 14.0728 35.5659 13.9246C35.6871 13.77 35.9485 13.5162 36.4441 13.1816L34.2062 9.86623ZM31.5479 13.79C31.5479 14.8799 31.9634 16.1338 32.5164 17.3933L36.1789 15.7854C35.6655 14.6158 35.5479 14.0036 35.5479 13.79H31.5479ZM32.5192 17.3998L38.0734 29.9301L41.7303 28.3092L36.1761 15.7789L32.5192 17.3998ZM38.0682 29.9182C38.5176 30.9502 39.0618 31.8853 39.7537 32.5885C40.4711 33.3177 41.4336 33.8745 42.6123 33.8745V29.8745C42.7839 29.8745 42.791 29.9722 42.605 29.7831C42.3933 29.568 42.0859 29.1256 41.7355 28.3211L38.0682 29.9182ZM42.6123 33.8745C44.3648 33.8745 45.7686 32.9612 46.8049 31.6459L43.6629 29.1705C43.1588 29.8103 42.8149 29.8745 42.6123 29.8745V33.8745ZM46.8049 31.6459C47.7433 30.4549 48.8667 28.3215 50.1656 25.458L46.5229 23.8056C45.215 26.6889 44.2649 28.4064 43.6629 29.1705L46.8049 31.6459ZM50.1653 25.4587C52.4983 20.3201 53.8771 17.2489 54.2765 16.2964L50.5877 14.7495C50.217 15.6336 48.8705 18.6349 46.5231 23.805L50.1653 25.4587ZM54.2851 16.2757C54.6879 15.2841 55.0098 14.257 55.0098 13.3457H51.0098C51.0098 13.3454 51.0098 13.3542 51.0081 13.3734C51.0065 13.3925 51.0034 13.4197 50.9978 13.4556C50.9863 13.5285 50.9661 13.6272 50.9322 13.7548C50.8638 14.0129 50.7505 14.3485 50.5792 14.7702L54.2851 16.2757ZM55.0098 13.3457C55.0098 11.2208 53.4874 9.83321 51.8309 8.98734L50.0118 12.5498C50.5548 12.827 50.8187 13.0631 50.9338 13.2052C50.9865 13.2702 51.0019 13.3077 51.0054 13.3171C51.008 13.3242 51.0098 13.3298 51.0098 13.3457H55.0098ZM51.843 8.99356C50.6664 8.38262 50.6108 7.9147 50.6108 7.70264H46.6108C46.6108 9.97885 48.0957 11.5549 49.9998 12.5435L51.843 8.99356ZM50.6108 7.70264C50.6108 7.31614 50.723 7.01863 50.9881 6.72193C51.2905 6.38349 51.8559 5.98291 52.8534 5.6108C54.8743 4.85696 58.128 4.41504 62.7852 4.41504V0.415039C57.9927 0.415039 54.1594 0.854387 51.4554 1.86308C50.0905 2.37223 48.8842 3.07323 48.0054 4.0567C47.0893 5.08189 46.6108 6.32661 46.6108 7.70264H50.6108ZM62.7852 4.41504C67.4827 4.41504 70.4579 4.81224 71.9955 5.42727L73.4811 1.71336C71.1677 0.788016 67.5076 0.415039 62.7852 0.415039V4.41504ZM72.0298 5.44063C72.7573 5.71619 73.1401 6.03174 73.3444 6.30094C73.5342 6.55115 73.6709 6.89229 73.6709 7.43604H77.6709C77.6709 6.14319 77.3188 4.92175 76.5311 3.88339C75.7578 2.86401 74.6743 2.165 73.4467 1.69999L72.0298 5.44063ZM73.6709 7.43604C73.6709 8.12513 73.4844 8.42915 73.3097 8.60183C73.0947 8.81433 72.6175 9.09838 71.5959 9.22905L72.1034 13.1967C73.6293 13.0016 75.0627 12.4932 76.1215 11.4468C77.2205 10.3605 77.6709 8.93899 77.6709 7.43604H73.6709ZM71.6216 9.22593C70.6691 9.33523 69.829 9.47377 69.126 9.65174C68.4658 9.81886 67.7451 10.0637 67.1684 10.4802L69.5103 13.7229C69.4668 13.7543 69.5977 13.6585 70.1077 13.5294C70.5747 13.4112 71.2231 13.2979 72.0776 13.1999L71.6216 9.22593ZM67.1721 10.4775C66.4139 11.0225 65.738 11.8396 65.1246 12.7516C64.493 13.6908 63.8407 14.8633 63.1656 16.2441L66.7592 18.001C67.3875 16.7158 67.9497 15.7185 68.4437 14.984C68.956 14.2223 69.3169 13.8619 69.5066 13.7256L67.1721 10.4775ZM90.4673 50.7588L89.1912 52.2988L89.2032 52.3087L89.2152 52.3184L90.4673 50.7588ZM101.931 52.4917L102.524 54.4018L102.534 54.3987L102.544 54.3954L101.931 52.4917ZM106.241 50.4478L105.088 48.8138L105.083 48.8174L106.241 50.4478ZM108.019 59.9121L106.824 58.3078L106.82 58.3109L108.019 59.9121ZM76.0708 59.7788L74.7584 61.288L74.7675 61.2958L76.0708 59.7788ZM71.0054 53.3359L69.2325 54.2616L69.2378 54.2717L71.0054 53.3359ZM72.916 29.3418L74.5074 30.5532L74.5094 30.5506L72.916 29.3418ZM82.8691 21.6548L83.6422 23.4993L83.6461 23.4977L82.8691 21.6548ZM107.041 24.543L105.78 26.0956L105.786 26.1002L107.041 24.543ZM111.84 30.2305L110.09 31.1998L110.094 31.207L111.84 30.2305ZM112.729 42.272L114.399 43.372L114.405 43.3628L114.411 43.3535L112.729 42.272ZM88.3345 29.6973L89.9485 30.8783L89.9519 30.8736L88.3345 29.6973ZM87.6235 35.2515L86.322 36.77L86.3477 36.792L86.3741 36.8132L87.6235 35.2515ZM109.618 42.0938H88.7344V46.0938H109.618V42.0938ZM88.7344 42.0938C88.0295 42.0938 87.1274 42.2413 86.3877 42.8855C85.5952 43.5758 85.3569 44.5078 85.3569 45.2935H89.3569C89.3569 45.2801 89.3593 45.3569 89.3109 45.4835C89.2579 45.622 89.1606 45.7749 89.0149 45.9018C88.7343 46.1462 88.5209 46.0938 88.7344 46.0938V42.0938ZM85.3569 45.2935C85.3569 48.0249 86.8505 50.3593 89.1912 52.2988L91.7433 49.2187C89.937 47.7221 89.3569 46.4129 89.3569 45.2935H85.3569ZM89.2152 52.3184C91.6269 54.2545 94.3101 55.2915 97.2212 55.2915V51.2915C95.3335 51.2915 93.5141 50.64 91.7194 49.1992L89.2152 52.3184ZM97.2212 55.2915C98.8891 55.2915 100.662 54.9796 102.524 54.4018L101.338 50.5816C99.7638 51.0702 98.397 51.2915 97.2212 51.2915V55.2915ZM102.544 54.3954C104.427 53.7892 106.063 53.0281 107.4 52.0781L105.083 48.8174C104.169 49.467 102.931 50.0685 101.318 50.588L102.544 54.3954ZM107.395 52.0817C107.831 51.7738 108.166 51.5834 108.409 51.4756C108.664 51.3619 108.725 51.3813 108.641 51.3813V47.3813C107.38 47.3813 106.135 48.0745 105.088 48.8138L107.395 52.0817ZM108.641 51.3813C108.593 51.3813 108.611 51.3617 108.722 51.4309C108.848 51.5099 109.057 51.6837 109.331 52.0345L112.483 49.5719C111.579 48.4147 110.308 47.3813 108.641 47.3813V51.3813ZM109.331 52.0345C109.852 52.7015 110.018 53.2571 110.018 53.7358H114.018C114.018 52.2003 113.443 50.8007 112.483 49.5719L109.331 52.0345ZM110.018 53.7358C110.018 54.9469 109.272 56.4853 106.824 58.3078L109.213 61.5164C112.097 59.3695 114.018 56.7904 114.018 53.7358H110.018ZM106.82 58.3109C102.473 61.5643 97.4627 63.1997 91.7114 63.1997V67.1997C98.2831 67.1997 104.144 65.3101 109.217 61.5133L106.82 58.3109ZM91.7114 63.1997C85.9068 63.1997 81.1733 61.5258 77.3741 58.2618L74.7675 61.2958C79.3811 65.2597 85.0747 67.1997 91.7114 67.1997V63.1997ZM77.3832 58.2696C75.5344 56.662 73.9968 54.712 72.7729 52.4002L69.2378 54.2717C70.6799 56.9957 72.5193 59.3409 74.7584 61.288L77.3832 58.2696ZM72.7783 52.4103C71.1767 49.3428 70.3838 46.1346 70.3838 42.7607H66.3838C66.3838 46.7925 67.3386 50.6344 69.2325 54.2616L72.7783 52.4103ZM70.3838 42.7607C70.3838 38.2229 71.7503 34.1753 74.5074 30.5532L71.3246 28.1304C68.0388 32.4471 66.3838 37.3454 66.3838 42.7607H70.3838ZM74.5094 30.5506C76.9006 27.3985 79.9338 25.0536 83.6422 23.4993L82.0961 19.8102C77.7472 21.6329 74.145 24.4127 71.3226 28.133L74.5094 30.5506ZM83.6461 23.4977C86.4036 22.3352 89.4105 21.7441 92.689 21.7441V17.7441C88.9173 17.7441 85.3776 18.4268 82.0922 19.8119L83.6461 23.4977ZM92.689 21.7441C97.9113 21.7441 102.236 23.2176 105.78 26.0956L108.302 22.9904C103.966 19.4699 98.7231 17.7441 92.689 17.7441V21.7441ZM105.786 26.1002C107.573 27.5404 109.003 29.2377 110.09 31.1997L113.589 29.2612C112.247 26.8391 110.478 24.7447 108.296 22.9858L105.786 26.1002ZM110.094 31.207C111.354 33.4574 111.928 35.5529 111.928 37.5176H115.928C115.928 34.7427 115.111 31.9801 113.585 29.2539L110.094 31.207ZM111.928 37.5176C111.928 39.1735 111.585 40.353 111.046 41.1905L114.411 43.3535C115.472 41.7027 115.928 39.7126 115.928 37.5176H111.928ZM111.058 41.172C110.567 41.9178 110.115 42.0938 109.618 42.0938V46.0938C111.669 46.0938 113.29 45.0552 114.399 43.372L111.058 41.172ZM89.8896 37.7847H94.3774V33.7847H89.8896V37.7847ZM94.3774 37.7847C95.5951 37.7847 96.8813 37.5074 97.8659 36.5998C98.8812 35.6637 99.2212 34.3889 99.2212 33.1631H95.2212C95.2212 33.685 95.0872 33.721 95.1546 33.6588C95.1913 33.625 95.0556 33.7847 94.3774 33.7847V37.7847ZM99.2212 33.1631C99.2212 31.1569 98.6331 29.3437 97.3217 27.9054L94.3658 30.6004C94.891 31.1764 95.2212 31.97 95.2212 33.1631H99.2212ZM97.3217 27.9054C95.9891 26.4439 94.2336 25.7422 92.2446 25.7422V29.7422C93.2178 29.7422 93.8618 30.0476 94.3658 30.6004L97.3217 27.9054ZM92.2446 25.7422C89.9681 25.7422 88.0541 26.6824 86.717 28.5209L89.9519 30.8736C90.5107 30.1054 91.2035 29.7422 92.2446 29.7422V25.7422ZM86.7204 28.5162C85.6347 30 85.0015 31.6336 85.0015 33.3853H89.0015C89.0015 32.6486 89.2569 31.8236 89.9485 30.8783L86.7204 28.5162ZM85.0015 33.3853C85.0015 34.4994 85.2497 35.8509 86.322 36.77L88.9251 33.733C89.0436 33.8345 89.0665 33.9222 89.0543 33.8859C89.038 33.8367 89.0015 33.6857 89.0015 33.3853H85.0015ZM86.3741 36.8132C87.3717 37.6112 88.7143 37.7847 89.8896 37.7847V33.7847C89.4577 33.7847 89.1649 33.7477 88.9814 33.7045C88.7934 33.6603 88.7948 33.6273 88.8729 33.6897L86.3741 36.8132ZM162.405 33.6519L164.184 34.566L164.186 34.5632L162.405 33.6519ZM150.897 56.0464L149.118 55.1322L149.117 55.1338L150.897 56.0464ZM146.365 63.2891L147.827 64.6537L147.834 64.6457L147.842 64.6376L146.365 63.2891ZM138.989 63.7778L140.51 62.4799L140.494 62.4609L140.478 62.4423L138.989 63.7778ZM134.234 56.9351L132.465 57.8674L132.471 57.8784L134.234 56.9351ZM121.615 32.9854L119.843 33.9119L119.846 33.9177L121.615 32.9854ZM119.616 30.186L118.236 31.6343L118.272 31.6679L118.308 31.6997L119.616 30.186ZM116.994 28.853L116.438 30.7742L116.462 30.781L116.485 30.7872L116.994 28.853ZM142.099 21.1216L141.503 23.0305L141.517 23.035L141.531 23.0392L142.099 21.1216ZM144.01 27.52L142.698 26.01L142.678 26.0276L142.658 26.0457L144.01 27.52ZM144.276 35.2515L142.529 36.2246L142.534 36.2342L142.54 36.2437L144.276 35.2515ZM152.319 33.4741L150.555 32.5314L150.553 32.5353L152.319 33.4741ZM152.274 27.0312L150.82 28.4045L150.829 28.4141L150.839 28.4235L152.274 27.0312ZM153.563 20.9883L152.939 19.0879L152.931 19.0909L153.563 20.9883ZM168.67 27.2534L168.069 25.3459L168.068 25.3463L168.67 27.2534ZM165.205 28.9863L163.79 27.5721L163.773 27.5894L163.756 27.607L165.205 28.9863ZM160.626 32.7377L149.118 55.1322L152.676 56.9605L164.184 34.566L160.626 32.7377ZM149.117 55.1338C147.352 58.5762 145.941 60.787 144.888 61.9405L147.842 64.6376C149.277 63.0658 150.887 60.4482 152.677 56.959L149.117 55.1338ZM144.903 61.9244C143.924 62.9733 143.087 63.2886 142.366 63.2886V67.2886C144.488 67.2886 146.318 66.2708 147.827 64.6537L144.903 61.9244ZM142.366 63.2886C141.524 63.2886 140.968 63.0159 140.51 62.4799L137.467 65.0757C138.728 66.5541 140.423 67.2886 142.366 67.2886V63.2886ZM140.478 62.4423C138.785 60.555 137.29 58.4075 135.998 55.9918L132.471 57.8784C133.904 60.5577 135.579 62.972 137.5 65.1133L140.478 62.4423ZM136.004 56.0028L123.385 32.053L119.846 33.9177L132.465 57.8674L136.004 56.0028ZM123.388 32.0588C122.66 30.6676 121.854 29.4767 120.923 28.6724L118.308 31.6997C118.681 32.021 119.207 32.6963 119.843 33.9119L123.388 32.0588ZM120.995 28.7378C120.057 27.8444 118.844 27.2718 117.503 26.9189L116.485 30.7872C117.395 31.0267 117.93 31.3427 118.236 31.6343L120.995 28.7378ZM117.55 26.9319C116.636 26.6672 116.162 26.3462 115.928 26.0938C115.735 25.885 115.617 25.6344 115.617 25.2095H111.617C111.617 26.5619 112.062 27.8072 112.995 28.8129C113.886 29.7751 115.101 30.3871 116.438 30.7742L117.55 26.9319ZM115.617 25.2095C115.617 24.8918 115.712 24.6251 116.036 24.3179C116.417 23.9572 117.132 23.5389 118.365 23.1717L117.223 19.3381C115.671 19.8003 114.298 20.4558 113.286 21.4133C112.219 22.4243 111.617 23.7201 111.617 25.2095H115.617ZM118.365 23.1717C120.856 22.4297 125.01 22.0107 130.991 22.0107V18.0107C124.945 18.0107 120.301 18.4213 117.223 19.3381L118.365 23.1717ZM130.991 22.0107C135.988 22.0107 139.437 22.3849 141.503 23.0305L142.696 19.2126C140.022 18.3771 136.066 18.0107 130.991 18.0107V22.0107ZM141.531 23.0392C142.578 23.3494 143.153 23.6903 143.44 23.9554C143.668 24.1671 143.698 24.3051 143.698 24.4541H147.698C147.698 23.0924 147.128 21.9195 146.157 21.0204C145.244 20.1747 144.02 19.6047 142.667 19.204L141.531 23.0392ZM143.698 24.4541C143.698 24.7383 143.567 25.2552 142.698 26.01L145.321 29.0301C146.703 27.8297 147.698 26.3027 147.698 24.4541H143.698ZM142.658 26.0457C141.954 26.6914 141.31 27.3386 140.945 27.9126L144.32 30.0601C144.317 30.0646 144.333 30.0386 144.383 29.9779C144.431 29.9194 144.498 29.8422 144.59 29.7447C144.774 29.5485 145.028 29.2997 145.361 28.9943L142.658 26.0457ZM140.945 27.9126C140.48 28.6433 140.321 29.4601 140.321 30.2305H144.321C144.321 29.9936 144.37 29.981 144.32 30.0601L140.945 27.9126ZM140.321 30.2305C140.321 31.1054 140.59 32.0508 140.946 32.9668C141.317 33.919 141.852 35.0095 142.529 36.2246L146.024 34.2783C145.397 33.1533 144.955 32.2368 144.674 31.5154C144.379 30.7577 144.321 30.3627 144.321 30.2305H140.321ZM142.54 36.2437C143.24 37.4695 143.985 38.5141 144.796 39.2755C145.599 40.0294 146.65 40.6729 147.92 40.6729V36.6729C148.064 36.6729 147.946 36.7461 147.534 36.3595C147.13 35.9804 146.616 35.3144 146.013 34.2592L142.54 36.2437ZM147.92 40.6729C149.246 40.6729 150.415 40.1343 151.272 39.1169L148.212 36.5403C148.144 36.6205 148.103 36.6412 148.09 36.6472C148.077 36.6533 148.031 36.6729 147.92 36.6729V40.6729ZM151.272 39.1169C151.91 38.3582 152.871 36.6959 154.085 34.413L150.553 32.5353C149.278 34.9327 148.521 36.1734 148.212 36.5403L151.272 39.1169ZM154.083 34.4169C155.013 32.6766 155.696 30.9899 155.696 29.564H151.696C151.696 29.9154 151.461 30.8354 150.555 32.5314L154.083 34.4169ZM155.696 29.564C155.696 28.0269 154.728 26.6882 153.71 25.639L150.839 28.4235C151.237 28.8344 151.471 29.1521 151.597 29.3767C151.724 29.6033 151.696 29.6533 151.696 29.564H155.696ZM153.728 25.658C152.872 24.7511 152.764 24.2305 152.764 24.0542H148.764C148.764 25.7145 149.663 27.1786 150.82 28.4045L153.728 25.658ZM152.764 24.0542C152.764 23.8272 152.82 23.7013 152.94 23.5699C153.1 23.3949 153.458 23.1316 154.195 22.8856L152.931 19.0909C151.802 19.467 150.76 20.0257 149.987 20.8728C149.173 21.7633 148.764 22.8594 148.764 24.0542H152.764ZM154.187 22.8886C155.759 22.3727 158.58 22.0552 162.85 22.0552V18.0552C158.529 18.0552 155.159 18.3597 152.939 19.088L154.187 22.8886ZM162.85 22.0552C165.789 22.0552 167.725 22.3813 168.856 22.8691C169.399 23.1037 169.652 23.3313 169.765 23.4775C169.856 23.596 169.914 23.7301 169.914 23.9653H173.914C173.914 22.8972 173.594 21.8908 172.93 21.0317C172.288 20.2004 171.407 19.6134 170.44 19.1963C168.55 18.3808 165.954 18.0552 162.85 18.0552V22.0552ZM169.914 23.9653C169.914 24.1839 169.859 24.3341 169.679 24.5158C169.451 24.7477 168.976 25.0603 168.069 25.3459L169.271 29.161C170.528 28.7652 171.674 28.1892 172.527 27.325C173.429 26.4107 173.914 25.2575 173.914 23.9653H169.914ZM168.068 25.3463C166.324 25.8971 164.772 26.5906 163.79 27.5721L166.619 30.4005C166.881 30.1379 167.64 29.6761 169.273 29.1606L168.068 25.3463ZM163.756 27.607C163.298 28.0877 162.823 28.7936 162.345 29.5903C161.847 30.421 161.273 31.4753 160.625 32.7405L164.186 34.5632C164.812 33.3402 165.341 32.3727 165.775 31.6483C166.231 30.8897 166.518 30.507 166.653 30.3656L163.756 27.607ZM192.042 50.7588L190.766 52.2988L190.778 52.3087L190.79 52.3184L192.042 50.7588ZM203.506 52.4917L204.099 54.4018L204.109 54.3987L204.119 54.3954L203.506 52.4917ZM207.816 50.4478L206.663 48.8138L206.658 48.8174L207.816 50.4478ZM209.594 59.9121L208.399 58.3078L208.395 58.3109L209.594 59.9121ZM177.646 59.7788L176.334 61.288L176.343 61.2958L177.646 59.7788ZM172.581 53.3359L170.808 54.2616L170.813 54.2717L172.581 53.3359ZM174.491 29.3418L176.083 30.5532L176.085 30.5506L174.491 29.3418ZM184.444 21.6548L185.217 23.4993L185.221 23.4977L184.444 21.6548ZM208.616 24.543L207.355 26.0956L207.361 26.1002L208.616 24.543ZM213.415 30.2305L211.666 31.1998L211.67 31.207L213.415 30.2305ZM214.304 42.272L215.974 43.372L215.98 43.3628L215.986 43.3535L214.304 42.272ZM189.91 29.6973L191.524 30.8783L191.527 30.8736L189.91 29.6973ZM189.199 35.2515L187.897 36.77L187.923 36.792L187.949 36.8132L189.199 35.2515ZM211.193 42.0938H190.31V46.0938H211.193V42.0938ZM190.31 42.0938C189.605 42.0938 188.703 42.2413 187.963 42.8855C187.17 43.5758 186.932 44.5078 186.932 45.2935H190.932C190.932 45.2801 190.935 45.3569 190.886 45.4835C190.833 45.622 190.736 45.7749 190.59 45.9018C190.31 46.1462 190.096 46.0938 190.31 46.0938V42.0938ZM186.932 45.2935C186.932 48.0249 188.426 50.3593 190.766 52.2988L193.319 49.2187C191.512 47.7221 190.932 46.4129 190.932 45.2935H186.932ZM190.79 52.3184C193.202 54.2545 195.885 55.2915 198.796 55.2915V51.2915C196.909 51.2915 195.089 50.64 193.295 49.1992L190.79 52.3184ZM198.796 55.2915C200.464 55.2915 202.237 54.9796 204.099 54.4018L202.914 50.5816C201.339 51.0702 199.972 51.2915 198.796 51.2915V55.2915ZM204.119 54.3954C206.002 53.7892 207.638 53.0281 208.975 52.0781L206.658 48.8174C205.744 49.467 204.506 50.0685 202.893 50.588L204.119 54.3954ZM208.97 52.0817C209.406 51.7738 209.741 51.5834 209.984 51.4756C210.24 51.3619 210.3 51.3813 210.216 51.3813V47.3813C208.955 47.3813 207.71 48.0745 206.663 48.8138L208.97 52.0817ZM210.216 51.3813C210.169 51.3813 210.187 51.3617 210.297 51.4309C210.423 51.5099 210.632 51.6837 210.906 52.0345L214.058 49.5719C213.154 48.4147 211.883 47.3813 210.216 47.3813V51.3813ZM210.906 52.0345C211.427 52.7015 211.593 53.2571 211.593 53.7358H215.593C215.593 52.2003 215.018 50.8007 214.058 49.5719L210.906 52.0345ZM211.593 53.7358C211.593 54.9469 210.848 56.4853 208.399 58.3078L210.788 61.5164C213.672 59.3695 215.593 56.7904 215.593 53.7358H211.593ZM208.395 58.3109C204.048 61.5643 199.038 63.1997 193.287 63.1997V67.1997C199.858 67.1997 205.719 65.3101 210.792 61.5133L208.395 58.3109ZM193.287 63.1997C187.482 63.1997 182.748 61.5258 178.949 58.2618L176.343 61.2958C180.956 65.2597 186.65 67.1997 193.287 67.1997V63.1997ZM178.958 58.2696C177.11 56.662 175.572 54.712 174.348 52.4002L170.813 54.2717C172.255 56.9957 174.094 59.3409 176.334 61.288L178.958 58.2696ZM174.353 52.4103C172.752 49.3428 171.959 46.1346 171.959 42.7607H167.959C167.959 46.7925 168.914 50.6344 170.808 54.2616L174.353 52.4103ZM171.959 42.7607C171.959 38.2229 173.326 34.1753 176.083 30.5532L172.9 28.1304C169.614 32.4471 167.959 37.3454 167.959 42.7607H171.959ZM176.085 30.5506C178.476 27.3985 181.509 25.0536 185.217 23.4993L183.671 19.8102C179.322 21.6329 175.72 24.4127 172.898 28.133L176.085 30.5506ZM185.221 23.4977C187.979 22.3352 190.986 21.7441 194.264 21.7441V17.7441C190.492 17.7441 186.953 18.4268 183.667 19.8119L185.221 23.4977ZM194.264 21.7441C199.486 21.7441 203.811 23.2176 207.355 26.0956L209.877 22.9904C205.542 19.4699 200.298 17.7441 194.264 17.7441V21.7441ZM207.361 26.1002C209.148 27.5404 210.579 29.2377 211.666 31.1997L215.164 29.2612C213.823 26.8391 212.054 24.7447 209.871 22.9858L207.361 26.1002ZM211.67 31.207C212.929 33.4574 213.503 35.5529 213.503 37.5176H217.503C217.503 34.7427 216.686 31.9801 215.16 29.2539L211.67 31.207ZM213.503 37.5176C213.503 39.1735 213.16 40.353 212.621 41.1905L215.986 43.3535C217.047 41.7027 217.503 39.7126 217.503 37.5176H213.503ZM212.633 41.172C212.142 41.9178 211.69 42.0938 211.193 42.0938V46.0938C213.244 46.0938 214.866 45.0552 215.974 43.372L212.633 41.172ZM191.465 37.7847H195.953V33.7847H191.465V37.7847ZM195.953 37.7847C197.17 37.7847 198.456 37.5074 199.441 36.5998C200.456 35.6637 200.796 34.3889 200.796 33.1631H196.796C196.796 33.685 196.662 33.721 196.73 33.6588C196.767 33.625 196.631 33.7847 195.953 33.7847V37.7847ZM200.796 33.1631C200.796 31.1569 200.208 29.3437 198.897 27.9054L195.941 30.6004C196.466 31.1764 196.796 31.97 196.796 33.1631H200.796ZM198.897 27.9054C197.564 26.4439 195.809 25.7422 193.82 25.7422V29.7422C194.793 29.7422 195.437 30.0476 195.941 30.6004L198.897 27.9054ZM193.82 25.7422C191.543 25.7422 189.629 26.6824 188.292 28.5209L191.527 30.8736C192.086 30.1054 192.779 29.7422 193.82 29.7422V25.7422ZM188.296 28.5162C187.21 30 186.577 31.6336 186.577 33.3853H190.577C190.577 32.6486 190.832 31.8236 191.524 30.8783L188.296 28.5162ZM186.577 33.3853C186.577 34.4994 186.825 35.8509 187.897 36.77L190.5 33.733C190.619 33.8345 190.642 33.9222 190.63 33.8859C190.613 33.8367 190.577 33.6857 190.577 33.3853H186.577ZM187.949 36.8132C188.947 37.6112 190.29 37.7847 191.465 37.7847V33.7847C191.033 33.7847 190.74 33.7477 190.557 33.7045C190.369 33.6603 190.37 33.6273 190.448 33.6897L187.949 36.8132Z" fill="#2B4E62"/>
</svg>
